<svg width="749" height="511" viewBox="0 0 749 511" fill="none" xmlns="http://www.w3.org/2000/svg">
<g opacity="0.5" filter="url(#filter0_f_979_6040)">
<path d="M548.836 276.416C548.836 295.194 454.144 310.416 337.336 310.416C220.528 310.416 125.836 295.194 125.836 276.416C125.836 257.638 220.528 242.416 337.336 242.416C454.144 242.416 548.836 257.638 548.836 276.416Z" fill="#DB14F1"/>
</g>
<rect x="106.336" y="25.916" width="539" height="308" rx="19.5" stroke="#B7B7B7" stroke-dasharray="5 5"/>
<rect x="135.836" y="57.416" width="480" height="245" rx="20" fill="#E1F9FF"/>
<path d="M584.345 149.522C593.561 153.861 605.011 208.027 612.138 249.608C614.202 261.651 604.857 272.525 592.638 272.548L145.99 273.408C143.878 273.412 142.274 271.314 143.139 269.387C143.323 268.977 143.426 268.621 143.498 268.177C144.018 264.98 145.872 261.442 151.125 252.765C151.994 251.33 153.034 249.986 154.305 248.89C165.173 239.507 174.766 241.456 178.358 243.758C179.46 244.527 182.383 246.525 186.281 249.099C187.796 250.1 189.446 251.037 191.263 251.03C196.677 251.01 200.284 245.542 201.528 242.389C202.706 239.956 206.24 231.165 210.953 215.469C214.229 201.828 219.325 203.052 222.322 206.203C223.206 207.133 223.971 208.173 224.878 209.081C225.633 209.836 226.602 210.799 227.724 211.905C230.108 214.254 233.512 216.412 236.145 214.347C240.038 211.294 242.588 203.616 243.548 199.044C246.297 188.549 252.658 165.279 256.114 156.154C260.284 148.081 265.785 150.602 268.811 153.608C269.556 154.348 270.115 155.247 270.625 156.165C274.676 163.458 282.132 176.802 284.782 181.249C287.61 185.994 290.935 185.964 292.244 185.355C293.243 184.839 295.658 183.293 298.286 180.828C299.255 179.92 300.221 178.943 301.483 178.533C303.364 177.922 305.18 178.287 306.435 178.817C307.219 179.149 307.859 179.729 308.457 180.335C309.084 180.97 309.877 181.771 310.723 182.623C312.431 184.343 315.151 186.046 316.942 184.414C317.45 183.95 318.073 183.334 318.456 182.762C320.757 179.321 324.36 166.722 326.017 160.26C326.565 158.221 328.125 153.317 330.466 147.915C331.381 145.802 332.621 143.27 334.921 143.156C341.641 142.825 345.847 164.947 347.223 177.599C348.794 190.679 352.014 218.116 352.328 223.226C352.688 229.085 354.37 234.945 355.858 240.804C356.126 241.858 356.784 243.728 357.502 244.546C359.999 247.391 362.411 241.829 364.368 238.589C367.096 234.073 370.337 230.721 372.553 228.855C373.44 228.108 374.454 227.547 375.498 227.044C380.53 224.616 389.111 220.115 392.777 216.838C395.903 214.044 399.229 214.102 401.381 214.76C402.502 215.103 403.41 215.891 404.406 216.51C406.055 217.535 408.653 218.663 411.627 218.663C417.282 218.663 421.576 209.234 423.016 204.519C425.241 199.348 430.084 187.911 431.655 183.53C433.414 178.626 435.488 174.453 439.289 169.373C440.2 168.156 441.251 167.008 442.593 166.293C447.855 163.485 451.638 167.382 454.611 171.168C455.811 172.697 457.126 174.324 459.02 174.758C462.256 175.499 464.601 172.739 466.664 168.955C467.165 168.036 467.709 167.148 468.182 166.214C471.386 159.89 476.218 141.213 478.388 131.972C479.435 128.626 482.708 118.831 487.42 106.42C494.018 94.3746 501.427 106.877 504.307 114.633C510.59 131.819 523.706 167.287 525.906 171.667C528.654 177.142 530.225 177.599 534.938 177.599C539.29 177.915 546.31 169.818 550.495 164.086C551.669 162.478 552.946 160.843 554.801 160.122C555.176 159.976 555.563 159.858 555.948 159.786C557.695 159.457 558.977 161.053 560.275 162.268C563.815 165.581 566.518 163.982 567.533 162.542C570.236 159.522 575.581 153.931 579.24 151.21C580.751 150.086 582.642 148.72 584.345 149.522Z" fill="url(#paint0_linear_979_6040)"/>
<rect x="70.8359" y="130.416" width="110" height="115" rx="20" fill="white"/>
<path d="M142.934 155.884C147.385 155.897 151.649 157.605 154.796 160.635C157.943 163.666 159.716 167.772 159.73 172.057V204.4C159.716 208.685 157.943 212.791 154.796 215.822C151.649 218.852 147.385 220.56 142.934 220.573H109.348C104.898 220.56 100.634 218.852 97.4867 215.822C94.3399 212.791 92.5662 208.685 92.5529 204.4V172.057C92.5662 167.772 94.3399 163.666 97.4867 160.635C100.634 157.605 104.898 155.897 109.348 155.884H142.934ZM142.934 149.416H109.348C96.4161 149.416 85.8359 159.604 85.8359 172.057V204.4C85.8359 216.853 96.4161 227.041 109.348 227.041H142.934C155.866 227.041 166.447 216.853 166.447 204.4V172.057C166.447 159.604 155.866 149.416 142.934 149.416Z" fill="#FA6488"/>
<path d="M147.976 172.057C146.98 172.057 146.006 171.772 145.177 171.239C144.349 170.706 143.703 169.948 143.322 169.062C142.94 168.175 142.841 167.2 143.035 166.259C143.229 165.317 143.709 164.453 144.414 163.775C145.118 163.096 146.016 162.634 146.993 162.447C147.971 162.26 148.984 162.356 149.904 162.723C150.825 163.09 151.612 163.712 152.165 164.51C152.719 165.308 153.014 166.246 153.014 167.205C153.016 167.843 152.886 168.474 152.634 169.063C152.381 169.653 152.01 170.188 151.542 170.639C151.074 171.089 150.518 171.447 149.906 171.69C149.294 171.933 148.638 172.058 147.976 172.057ZM126.145 175.29C128.802 175.29 131.4 176.049 133.609 177.47C135.819 178.892 137.541 180.913 138.558 183.277C139.575 185.641 139.841 188.242 139.322 190.752C138.804 193.262 137.524 195.567 135.645 197.377C133.766 199.186 131.372 200.418 128.766 200.917C126.16 201.417 123.458 201.16 121.003 200.181C118.548 199.202 116.45 197.544 114.973 195.416C113.497 193.288 112.709 190.787 112.709 188.228C112.713 184.798 114.13 181.509 116.649 179.083C119.167 176.658 122.583 175.294 126.145 175.29ZM126.145 168.822C122.159 168.822 118.263 169.96 114.949 172.092C111.635 174.225 109.052 177.255 107.526 180.801C106.001 184.348 105.602 188.249 106.379 192.014C107.157 195.778 109.076 199.236 111.895 201.95C114.713 204.664 118.304 206.513 122.213 207.261C126.122 208.01 130.175 207.626 133.857 206.157C137.539 204.688 140.687 202.201 142.901 199.009C145.116 195.818 146.297 192.066 146.297 188.228C146.297 183.081 144.174 178.145 140.395 174.506C136.616 170.866 131.49 168.822 126.145 168.822Z" fill="#FA6488"/>
<rect x="188.836" y="8.41602" width="110" height="115" rx="20" fill="white"/>
<path d="M276.836 46.8062C274.357 47.8834 271.734 48.5932 269.049 48.9129C271.87 47.2611 273.992 44.6369 275.016 41.5324C272.349 43.092 269.436 44.1862 266.401 44.7683C265.124 43.4292 263.587 42.364 261.885 41.6373C260.183 40.9106 258.351 40.5376 256.5 40.541C249.006 40.541 242.942 46.517 242.942 53.8837C242.937 54.9084 243.054 55.93 243.292 56.9268C237.919 56.6749 232.657 55.3042 227.844 52.9023C223.031 50.5005 218.772 47.1203 215.34 42.9782C214.136 45.008 213.499 47.324 213.496 49.684C213.496 54.3106 215.91 58.4001 219.555 60.796C217.395 60.7448 215.28 60.1732 213.389 59.1299V59.2952C213.389 65.7668 218.07 71.1507 224.267 72.3762C223.101 72.6868 221.901 72.8442 220.695 72.8444C219.839 72.8459 218.985 72.7629 218.146 72.5965C219.869 77.8978 224.882 81.7533 230.821 81.8634C225.995 85.5825 220.071 87.5926 213.978 87.5778C212.897 87.5762 211.816 87.5118 210.742 87.385C216.94 91.3427 224.145 93.4361 231.498 93.4161C256.471 93.4161 270.114 73.0785 270.114 55.4397C270.114 54.8614 270.099 54.283 270.071 53.7185C272.719 51.8349 275.01 49.4942 276.836 46.8062Z" fill="#4CCEEB"/>
<rect x="180.836" y="251.416" width="96" height="101" rx="20" fill="white"/>
<path d="M242.802 285.791H215.052C213.536 285.791 212.211 286.882 212.211 288.381V316.192C212.211 317.698 213.536 319.041 215.052 319.041H242.794C244.318 319.041 245.461 317.689 245.461 316.192V288.381C245.47 286.882 244.318 285.791 242.802 285.791ZM222.518 313.507H217.754V298.696H222.518V313.507ZM220.301 296.444H220.267C218.742 296.444 217.755 295.31 217.755 293.889C217.755 292.443 218.768 291.334 220.327 291.334C221.885 291.334 222.839 292.434 222.873 293.889C222.872 295.31 221.885 296.444 220.301 296.444ZM239.926 313.507H235.163V305.409C235.163 303.468 234.47 302.143 232.747 302.143C231.43 302.143 230.651 303.034 230.304 303.901C230.174 304.213 230.139 304.637 230.139 305.071V313.507H225.376V298.696H230.139V300.757C230.832 299.77 231.915 298.35 234.435 298.35C237.562 298.35 239.927 300.411 239.927 304.854L239.926 313.507Z" fill="#68A3DA"/>
<rect x="357.836" y="0.416016" width="96" height="101" rx="20" fill="white"/>
<path d="M422.617 43.936C422.617 41.0064 420.419 38.6497 417.703 38.6497C414.023 38.4811 410.271 38.416 406.436 38.416H405.241C401.415 38.416 397.656 38.4811 393.977 38.6504C391.267 38.6504 389.069 41.0201 389.069 43.9497C388.903 46.2667 388.832 48.5844 388.836 50.902C388.83 53.2196 388.905 55.5395 389.062 57.8615C389.062 60.7911 391.26 63.1673 393.97 63.1673C397.836 63.3431 401.8 63.4212 405.832 63.4147C409.87 63.4277 413.824 63.3452 417.693 63.1673C420.41 63.1673 422.608 60.7911 422.608 57.8615C422.768 55.5373 422.841 53.2197 422.834 50.8955C422.849 48.5778 422.777 46.258 422.617 43.936ZM402.584 57.2886V44.4959L412.214 50.889L402.584 57.2886Z" fill="#FF2525"/>
<rect x="364.836" y="230.416" width="126" height="133" rx="20" fill="white"/>
<path d="M427.844 260.416C407.407 260.416 390.836 276.98 390.836 297.408C390.836 312.551 399.956 325.564 412.991 331.295C412.892 328.719 412.975 325.614 413.636 322.807C414.346 319.801 418.394 302.643 418.394 302.643C418.394 302.643 417.204 300.281 417.204 296.797C417.204 291.314 420.376 287.219 424.342 287.219C427.712 287.219 429.331 289.745 429.331 292.767C429.331 296.153 427.167 301.206 426.06 305.896C425.135 309.826 428.026 313.014 431.908 313.014C438.914 313.014 443.639 304.013 443.639 293.345C443.639 285.237 438.17 279.176 428.241 279.176C417.023 279.176 410.017 287.549 410.017 296.896C410.017 300.116 410.976 302.395 412.463 304.146C413.14 304.955 413.239 305.285 412.991 306.21C412.81 306.887 412.413 308.522 412.231 309.182C411.984 310.124 411.224 310.454 410.381 310.107C405.21 307.993 402.798 302.345 402.798 295.971C402.798 285.468 411.67 272.868 429.249 272.868C443.374 272.868 452.676 283.09 452.676 294.055C452.676 308.571 444.597 319.405 432.702 319.405C428.703 319.405 424.953 317.241 423.664 314.797C423.664 314.797 421.516 323.318 421.054 324.97C420.277 327.827 418.741 330.667 417.336 332.897C420.743 333.901 424.276 334.413 427.828 334.416C448.265 334.416 464.836 317.852 464.836 297.424C464.836 276.996 448.281 260.416 427.844 260.416Z" fill="#FF5555"/>
<rect x="517.836" y="104.416" width="144" height="151" rx="20" fill="white"/>
<path fill-rule="evenodd" clip-rule="evenodd" d="M633.836 180.55C633.836 157.235 614.204 138.33 589.992 138.33C565.78 138.33 546.148 157.235 546.148 180.55C546.148 201.622 562.179 219.089 583.142 222.259V192.758H572.006V180.55H583.142V171.248C583.142 160.669 589.689 154.82 599.702 154.82C604.5 154.82 609.518 155.646 609.518 155.646V166.037H603.987C598.544 166.037 596.841 169.29 596.841 172.634V180.55H609L607.058 192.758H596.843V222.263C617.806 219.094 633.836 201.628 633.836 180.55Z" fill="#545AEB"/>
<defs>
<filter id="filter0_f_979_6040" x="-74.1641" y="42.416" width="823" height="468" filterUnits="userSpaceOnUse" color-interpolation-filters="sRGB">
<feFlood flood-opacity="0" result="BackgroundImageFix"/>
<feBlend mode="normal" in="SourceGraphic" in2="BackgroundImageFix" result="shape"/>
<feGaussianBlur stdDeviation="100" result="effect1_foregroundBlur_979_6040"/>
</filter>
<linearGradient id="paint0_linear_979_6040" x1="378.836" y1="101.416" x2="378.836" y2="273.416" gradientUnits="userSpaceOnUse">
<stop stop-color="#A5DDFF"/>
<stop offset="1" stop-color="#D3EFFF" stop-opacity="0"/>
</linearGradient>
</defs>
</svg>
