<svg width="199" height="18" viewBox="0 0 199 18" fill="none" xmlns="http://www.w3.org/2000/svg">
<path d="M1.39624 15.9538C8.42181 12.1708 17.4728 10.0225 25.4745 10.0225C31.2033 10.0225 35.3062 11.9656 40.2792 14.6828C45.8324 17.717 52.2266 16.9508 57.9554 14.6593C62.4474 12.8624 66.6033 10.5112 70.9713 8.46906C74.4027 6.86476 78.5823 6.295 82.3161 5.78585C85.8628 5.3022 89.7644 5.0367 93.3313 5.45634C99.0953 6.13445 103.831 10.9422 109.478 12.4233C115.833 14.0903 121.082 12.8443 127.036 10.4697C135.57 7.06612 144.58 2.89297 153.774 1.64336C163.663 0.299205 171.934 5.8321 181.524 6.60964C186.841 7.04072 192.296 6.60437 197.553 7.48051" stroke="black" stroke-linecap="round"/>
</svg>
