<svg width="344" height="21" viewBox="0 0 344 21" fill="none" xmlns="http://www.w3.org/2000/svg">
<path d="M0.888916 19.6356C3.35522 11.8843 20.9487 4.96837 29.1584 6.33666C38.6658 7.92123 47.6614 9.78556 57.3907 10.3115C61.2564 10.5204 64.8765 11.3322 68.795 11.0173C75.8158 10.4531 82.3695 8.64906 89.0777 6.67099C95.4585 4.78948 102.402 3.66518 109.063 3.58772C116.536 3.50083 121.366 4.49501 127.934 8.26834C133.578 11.5104 138.565 14.3367 145.171 14.2863C154.12 14.218 162.713 11.0587 171.174 8.49123C176.429 6.89659 181.48 4.45004 187.111 4.99934C196.393 5.90493 205.141 9.28813 214.674 9.56851C227.785 9.95413 239.275 5.8474 251.859 2.99336C258.614 1.46139 264.156 0.501496 270.953 1.61889C279.53 3.02885 288.142 2.98052 296.808 2.91906C304.796 2.86242 312.496 0.913086 320.508 0.913086C326.447 0.913086 330.36 2.18669 335.739 4.10779C337.888 4.87526 340.317 5.21747 342.574 5.5937" stroke="black" stroke-linecap="round"/>
</svg>
