<svg width="591" height="526" viewBox="0 0 591 526" fill="none" xmlns="http://www.w3.org/2000/svg">
<g clip-path="url(#clip0_191_969)">
<path d="M412.041 64.1654L410.91 65.1763L488.471 128.041L489.601 127.03L412.041 64.1654Z" fill="#E6E6E6"/>
<path d="M489.725 120.214L488.087 120.298L488.581 127.166L480.498 127.083L480.48 128.479L490.325 128.579L489.725 120.214Z" fill="#E6E6E6"/>
<path d="M420.034 63.7262L420.016 65.1222L411.934 65.0395L412.428 71.9076L410.79 71.9919L410.191 63.626L420.034 63.7262Z" fill="#E6E6E6"/>
<path d="M450.258 103.779C455.237 103.779 459.273 100.342 459.273 96.1033C459.273 91.8643 455.237 88.428 450.258 88.428C445.279 88.428 441.242 91.8643 441.242 96.1033C441.242 100.342 445.279 103.779 450.258 103.779Z" fill="#E6E6E6"/>
<path d="M180.596 64.1653L103.035 127.03L104.166 128.041L181.726 65.1761L180.596 64.1653Z" fill="#E6E6E6"/>
<path d="M102.312 128.579L112.157 128.479L112.138 127.083L104.056 127.166L104.55 120.298L102.913 120.214L102.312 128.579Z" fill="#E6E6E6"/>
<path d="M182.449 63.626L181.85 71.9919L180.212 71.9076L180.705 65.0395L172.623 65.1222L172.605 63.7262L182.449 63.626Z" fill="#E6E6E6"/>
<path d="M142.383 103.779C147.362 103.779 151.398 100.342 151.398 96.1033C151.398 91.8643 147.362 88.428 142.383 88.428C137.404 88.428 133.367 91.8643 133.367 96.1033C133.367 100.342 137.404 103.779 142.383 103.779Z" fill="#E6E6E6"/>
<path d="M363.528 159.088H227.474C225.518 159.086 223.643 158.424 222.261 157.247C220.878 156.069 220.1 154.473 220.098 152.808V6.27979C220.1 4.61487 220.878 3.01869 222.261 1.84141C223.643 0.664129 225.518 0.00189601 227.474 0H363.528C365.483 0.00189601 367.358 0.664129 368.741 1.84141C370.124 3.01869 370.902 4.61487 370.904 6.27979V152.808C370.902 154.473 370.124 156.069 368.741 157.247C367.358 158.424 365.483 159.086 363.528 159.088ZM227.474 1.39551C225.953 1.39697 224.495 1.91203 223.419 2.82769C222.344 3.74336 221.739 4.98484 221.737 6.27979V152.808C221.739 154.103 222.344 155.345 223.419 156.26C224.495 157.176 225.953 157.691 227.474 157.693H363.528C365.049 157.691 366.507 157.176 367.583 156.26C368.658 155.345 369.263 154.103 369.265 152.808V6.27979C369.263 4.98484 368.658 3.74336 367.583 2.82769C366.507 1.91203 365.049 1.39697 363.528 1.39551H227.474Z" fill="#3F3D56"/>
<path d="M284.183 70.4327H254.235C253.257 70.4317 252.32 70.1006 251.628 69.512C250.937 68.9234 250.548 68.1253 250.547 67.2928V37.2058C250.548 36.3733 250.937 35.5752 251.628 34.9866C252.32 34.3979 253.257 34.0668 254.235 34.0659H284.183C285.161 34.0668 286.099 34.3979 286.79 34.9866C287.481 35.5752 287.87 36.3733 287.871 37.2058V67.2928C287.87 68.1252 287.481 68.9233 286.79 69.512C286.099 70.1006 285.161 70.4317 284.183 70.4327Z" fill="#6C63FF"/>
<path d="M342.375 84.3877H312.426C311.449 84.3868 310.511 84.0557 309.82 83.4671C309.128 82.8784 308.739 82.0803 308.738 81.2478V51.1609C308.739 50.3284 309.128 49.5303 309.82 48.9417C310.511 48.353 311.449 48.0219 312.426 48.021H342.375C343.353 48.0219 344.29 48.353 344.981 48.9417C345.673 49.5303 346.062 50.3284 346.063 51.1609V81.2478C346.062 82.0803 345.673 82.8784 344.981 83.4671C344.29 84.0557 343.353 84.3868 342.375 84.3877Z" fill="#CCCCCC"/>
<path d="M295.656 126.951H265.708C264.73 126.95 263.792 126.619 263.101 126.03C262.41 125.441 262.021 124.643 262.02 123.811V93.7239C262.021 92.8914 262.41 92.0933 263.101 91.5047C263.792 90.916 264.73 90.5849 265.708 90.584H295.656C296.634 90.5849 297.571 90.916 298.263 91.5047C298.954 92.0933 299.343 92.8914 299.344 93.7239V123.811C299.343 124.643 298.954 125.441 298.263 126.03C297.571 126.619 296.634 126.95 295.656 126.951Z" fill="#FF6584"/>
<path d="M583.125 309.756H447.072C445.116 309.754 443.241 309.091 441.858 307.914C440.475 306.737 439.698 305.141 439.695 303.476V156.947C439.698 155.282 440.475 153.686 441.858 152.509C443.241 151.332 445.116 150.669 447.072 150.667H583.125C585.081 150.669 586.956 151.332 588.339 152.509C589.722 153.686 590.5 155.282 590.502 156.947V303.476C590.5 305.141 589.722 306.737 588.339 307.914C586.956 309.092 585.081 309.754 583.125 309.756ZM447.072 152.063C445.551 152.064 444.092 152.58 443.017 153.495C441.941 154.411 441.336 155.652 441.335 156.947V303.476C441.336 304.771 441.941 306.012 443.017 306.928C444.092 307.844 445.551 308.359 447.072 308.36H583.125C584.646 308.359 586.105 307.844 587.18 306.928C588.256 306.012 588.861 304.771 588.863 303.476V156.947C588.861 155.652 588.256 154.411 587.18 153.495C586.105 152.58 584.646 152.064 583.125 152.063H447.072Z" fill="#3F3D56"/>
<path d="M538.457 183.113H491.739C490.87 183.113 490.036 182.819 489.421 182.296C488.806 181.772 488.461 181.062 488.461 180.322C488.461 179.582 488.806 178.872 489.421 178.348C490.036 177.825 490.87 177.531 491.739 177.531H538.457C539.326 177.531 540.16 177.825 540.775 178.348C541.39 178.872 541.735 179.582 541.735 180.322C541.735 181.062 541.39 181.772 540.775 182.296C540.16 182.819 539.326 183.113 538.457 183.113Z" fill="#6C63FF"/>
<path d="M561.403 209.628H468.788C468.357 209.628 467.93 209.557 467.532 209.417C467.133 209.277 466.771 209.071 466.466 208.812C466.161 208.553 465.919 208.245 465.754 207.906C465.589 207.567 465.504 207.204 465.504 206.837C465.504 206.47 465.589 206.106 465.754 205.767C465.919 205.429 466.161 205.121 466.466 204.861C466.771 204.602 467.133 204.397 467.532 204.257C467.93 204.117 468.357 204.045 468.788 204.046H561.403C561.834 204.045 562.261 204.117 562.659 204.257C563.058 204.397 563.42 204.602 563.725 204.861C564.03 205.121 564.272 205.429 564.437 205.767C564.602 206.106 564.687 206.47 564.687 206.837C564.687 207.204 564.602 207.567 564.437 207.906C564.272 208.245 564.03 208.553 563.725 208.812C563.42 209.071 563.058 209.277 562.659 209.417C562.261 209.557 561.834 209.628 561.403 209.628Z" fill="#CCCCCC"/>
<path d="M561.403 224.281H468.788C468.357 224.281 467.93 224.209 467.532 224.069C467.133 223.929 466.771 223.724 466.466 223.465C466.161 223.206 465.919 222.898 465.754 222.559C465.589 222.22 465.504 221.856 465.504 221.489C465.504 221.123 465.589 220.759 465.754 220.42C465.919 220.081 466.161 219.773 466.466 219.514C466.771 219.255 467.133 219.05 467.532 218.91C467.93 218.77 468.357 218.698 468.788 218.698H561.403C561.834 218.698 562.261 218.77 562.659 218.91C563.058 219.05 563.42 219.255 563.725 219.514C564.03 219.773 564.272 220.081 564.437 220.42C564.602 220.759 564.687 221.123 564.687 221.489C564.687 221.856 564.602 222.22 564.437 222.559C564.272 222.898 564.03 223.206 563.725 223.465C563.42 223.724 563.058 223.929 562.659 224.069C562.261 224.209 561.834 224.281 561.403 224.281Z" fill="#CCCCCC"/>
<path d="M561.403 238.933H468.788C468.357 238.934 467.93 238.862 467.532 238.722C467.133 238.582 466.771 238.377 466.466 238.118C466.161 237.858 465.919 237.55 465.754 237.212C465.589 236.873 465.504 236.509 465.504 236.142C465.504 235.775 465.589 235.412 465.754 235.073C465.919 234.734 466.161 234.426 466.466 234.167C466.771 233.908 467.133 233.702 467.532 233.562C467.93 233.422 468.357 233.351 468.788 233.351H561.403C561.834 233.351 562.261 233.422 562.659 233.562C563.058 233.702 563.42 233.908 563.725 234.167C564.03 234.426 564.272 234.734 564.437 235.073C564.602 235.412 564.687 235.775 564.687 236.142C564.687 236.509 564.602 236.873 564.437 237.212C564.272 237.55 564.03 237.858 563.725 238.118C563.42 238.377 563.058 238.582 562.659 238.722C562.261 238.862 561.834 238.934 561.403 238.933Z" fill="#CCCCCC"/>
<path d="M561.403 253.586H468.788C468.357 253.587 467.93 253.515 467.532 253.375C467.133 253.235 466.771 253.03 466.466 252.77C466.161 252.511 465.919 252.203 465.754 251.864C465.589 251.525 465.504 251.162 465.504 250.795C465.504 250.428 465.589 250.065 465.754 249.726C465.919 249.387 466.161 249.079 466.466 248.82C466.771 248.561 467.133 248.355 467.532 248.215C467.93 248.075 468.357 248.004 468.788 248.004H561.403C561.834 248.004 562.261 248.075 562.659 248.215C563.058 248.355 563.42 248.561 563.725 248.82C564.03 249.079 564.272 249.387 564.437 249.726C564.602 250.065 564.687 250.428 564.687 250.795C564.687 251.162 564.602 251.525 564.437 251.864C564.272 252.203 564.03 252.511 563.725 252.77C563.42 253.03 563.058 253.235 562.659 253.375C562.261 253.515 561.834 253.587 561.403 253.586Z" fill="#CCCCCC"/>
<path d="M561.403 268.239H468.788C468.357 268.24 467.93 268.168 467.532 268.028C467.133 267.888 466.771 267.683 466.466 267.423C466.161 267.164 465.919 266.856 465.754 266.517C465.589 266.179 465.504 265.815 465.504 265.448C465.504 265.081 465.589 264.718 465.754 264.379C465.919 264.04 466.161 263.732 466.466 263.473C466.771 263.214 467.133 263.008 467.532 262.868C467.93 262.728 468.357 262.657 468.788 262.657H561.403C561.834 262.657 562.261 262.728 562.659 262.868C563.058 263.008 563.42 263.214 563.725 263.473C564.03 263.732 564.272 264.04 564.437 264.379C564.602 264.718 564.687 265.081 564.687 265.448C564.687 265.815 564.602 266.179 564.437 266.517C564.272 266.856 564.03 267.164 563.725 267.423C563.42 267.683 563.058 267.888 562.659 268.028C562.261 268.168 561.834 268.24 561.403 268.239Z" fill="#CCCCCC"/>
<path d="M561.403 282.892H468.788C468.357 282.893 467.93 282.821 467.532 282.681C467.133 282.541 466.771 282.336 466.466 282.076C466.161 281.817 465.919 281.509 465.754 281.17C465.589 280.831 465.504 280.468 465.504 280.101C465.504 279.734 465.589 279.371 465.754 279.032C465.919 278.693 466.161 278.385 466.466 278.126C466.771 277.867 467.133 277.661 467.532 277.521C467.93 277.381 468.357 277.309 468.788 277.31H561.403C561.834 277.309 562.261 277.381 562.659 277.521C563.058 277.661 563.42 277.867 563.725 278.126C564.03 278.385 564.272 278.693 564.437 279.032C564.602 279.371 564.687 279.734 564.687 280.101C564.687 280.468 564.602 280.831 564.437 281.17C564.272 281.509 564.03 281.817 563.725 282.076C563.42 282.336 563.058 282.541 562.659 282.681C562.261 282.821 561.834 282.893 561.403 282.892Z" fill="#CCCCCC"/>
<path d="M143.93 309.756H7.8764C5.92074 309.754 4.04581 309.092 2.66295 307.914C1.28009 306.737 0.502225 305.141 0.5 303.476V156.947C0.502225 155.282 1.28009 153.686 2.66295 152.509C4.04581 151.332 5.92074 150.669 7.8764 150.667H143.93C145.886 150.669 147.761 151.332 149.143 152.509C150.526 153.686 151.304 155.282 151.306 156.947V303.476C151.304 305.141 150.526 306.737 149.143 307.914C147.761 309.091 145.886 309.754 143.93 309.756ZM7.8764 152.063C6.35532 152.064 4.89704 152.58 3.82148 153.495C2.74591 154.411 2.1409 155.652 2.13919 156.947V303.476C2.1409 304.771 2.74591 306.012 3.82148 306.928C4.89704 307.844 6.35532 308.359 7.8764 308.36H143.93C145.451 308.359 146.909 307.844 147.985 306.928C149.061 306.012 149.665 304.771 149.667 303.476V156.947C149.665 155.652 149.061 154.411 147.985 153.495C146.909 152.58 145.451 152.064 143.93 152.063H7.8764Z" fill="#3F3D56"/>
<path d="M122.352 185.263H81.3722C80.5027 185.263 79.6688 184.969 79.054 184.445C78.4391 183.922 78.0938 183.212 78.0938 182.472C78.0938 181.732 78.4391 181.022 79.054 180.498C79.6688 179.975 80.5027 179.681 81.3722 179.681H122.352C123.222 179.681 124.056 179.975 124.67 180.498C125.285 181.022 125.631 181.732 125.631 182.472C125.631 183.212 125.285 183.922 124.67 184.445C124.056 184.969 123.222 185.263 122.352 185.263Z" fill="#3F3D56"/>
<path d="M122.352 199.916H81.3722C80.5027 199.916 79.6688 199.622 79.054 199.098C78.4391 198.575 78.0938 197.865 78.0938 197.125C78.0938 196.385 78.4391 195.675 79.054 195.151C79.6688 194.628 80.5027 194.334 81.3722 194.334H122.352C123.222 194.334 124.056 194.628 124.67 195.151C125.285 195.675 125.631 196.385 125.631 197.125C125.631 197.865 125.285 198.575 124.67 199.098C124.056 199.622 123.222 199.916 122.352 199.916Z" fill="#3F3D56"/>
<path d="M60.3473 208.259H30.3992C29.4213 208.258 28.4838 207.927 27.7924 207.338C27.101 206.75 26.712 205.952 26.7109 205.119V175.032C26.712 174.2 27.101 173.402 27.7924 172.813C28.4838 172.224 29.4213 171.893 30.3992 171.892H60.3473C61.3252 171.893 62.2627 172.224 62.9541 172.813C63.6455 173.402 64.0345 174.2 64.0355 175.032V205.119C64.0345 205.952 63.6455 206.75 62.9541 207.338C62.2627 207.927 61.3252 208.258 60.3473 208.259Z" fill="#6C63FF"/>
<path d="M122.067 229.919H29.452C29.021 229.92 28.5941 229.848 28.1957 229.708C27.7973 229.568 27.4352 229.363 27.1302 229.103C26.8252 228.844 26.5832 228.536 26.4181 228.197C26.2529 227.858 26.168 227.495 26.168 227.128C26.168 226.761 26.2529 226.398 26.4181 226.059C26.5832 225.72 26.8252 225.412 27.1302 225.153C27.4352 224.894 27.7973 224.688 28.1957 224.548C28.5941 224.408 29.021 224.337 29.452 224.337H122.067C122.498 224.337 122.925 224.408 123.323 224.548C123.722 224.688 124.084 224.894 124.389 225.153C124.694 225.412 124.936 225.72 125.101 226.059C125.266 226.398 125.351 226.761 125.351 227.128C125.351 227.495 125.266 227.858 125.101 228.197C124.936 228.536 124.694 228.844 124.389 229.103C124.084 229.363 123.722 229.568 123.323 229.708C122.925 229.848 122.498 229.92 122.067 229.919Z" fill="#CCCCCC"/>
<path d="M122.067 244.572H29.452C29.021 244.573 28.5941 244.501 28.1957 244.361C27.7973 244.221 27.4352 244.015 27.1302 243.756C26.8252 243.497 26.5832 243.189 26.4181 242.85C26.2529 242.511 26.168 242.148 26.168 241.781C26.168 241.414 26.2529 241.051 26.4181 240.712C26.5832 240.373 26.8252 240.065 27.1302 239.806C27.4352 239.547 27.7973 239.341 28.1957 239.201C28.5941 239.061 29.021 238.989 29.452 238.99H122.067C122.498 238.989 122.925 239.061 123.323 239.201C123.722 239.341 124.084 239.547 124.389 239.806C124.694 240.065 124.936 240.373 125.101 240.712C125.266 241.051 125.351 241.414 125.351 241.781C125.351 242.148 125.266 242.511 125.101 242.85C124.936 243.189 124.694 243.497 124.389 243.756C124.084 244.015 123.722 244.221 123.323 244.361C122.925 244.501 122.498 244.573 122.067 244.572Z" fill="#CCCCCC"/>
<path d="M122.067 259.225H29.452C29.021 259.226 28.5941 259.154 28.1957 259.014C27.7973 258.874 27.4352 258.668 27.1302 258.409C26.8252 258.15 26.5832 257.842 26.4181 257.503C26.2529 257.164 26.168 256.801 26.168 256.434C26.168 256.067 26.2529 255.704 26.4181 255.365C26.5832 255.026 26.8252 254.718 27.1302 254.459C27.4352 254.199 27.7973 253.994 28.1957 253.854C28.5941 253.714 29.021 253.642 29.452 253.643H122.067C122.498 253.642 122.925 253.714 123.323 253.854C123.722 253.994 124.084 254.199 124.389 254.459C124.694 254.718 124.936 255.026 125.101 255.365C125.266 255.704 125.351 256.067 125.351 256.434C125.351 256.801 125.266 257.164 125.101 257.503C124.936 257.842 124.694 258.15 124.389 258.409C124.084 258.668 123.722 258.874 123.323 259.014C122.925 259.154 122.498 259.226 122.067 259.225Z" fill="#CCCCCC"/>
<path d="M122.067 273.878H29.452C29.021 273.878 28.5941 273.807 28.1957 273.667C27.7973 273.527 27.4352 273.321 27.1302 273.062C26.8252 272.803 26.5832 272.495 26.4181 272.156C26.2529 271.817 26.168 271.454 26.168 271.087C26.168 270.72 26.2529 270.356 26.4181 270.017C26.5832 269.679 26.8252 269.371 27.1302 269.111C27.4352 268.852 27.7973 268.647 28.1957 268.507C28.5941 268.367 29.021 268.295 29.452 268.296H122.067C122.498 268.295 122.925 268.367 123.323 268.507C123.722 268.647 124.084 268.852 124.389 269.111C124.694 269.371 124.936 269.679 125.101 270.017C125.266 270.356 125.351 270.72 125.351 271.087C125.351 271.454 125.266 271.817 125.101 272.156C124.936 272.495 124.694 272.803 124.389 273.062C124.084 273.321 123.722 273.527 123.323 273.667C122.925 273.807 122.498 273.878 122.067 273.878Z" fill="#CCCCCC"/>
<path d="M122.067 288.531H29.452C29.021 288.531 28.5941 288.459 28.1957 288.319C27.7973 288.179 27.4352 287.974 27.1302 287.715C26.8252 287.456 26.5832 287.148 26.4181 286.809C26.2529 286.47 26.168 286.106 26.168 285.74C26.168 285.373 26.2529 285.009 26.4181 284.67C26.5832 284.331 26.8252 284.023 27.1302 283.764C27.4352 283.505 27.7973 283.3 28.1957 283.16C28.5941 283.02 29.021 282.948 29.452 282.948H122.067C122.498 282.948 122.925 283.02 123.323 283.16C123.722 283.3 124.084 283.505 124.389 283.764C124.694 284.023 124.936 284.331 125.101 284.67C125.266 285.009 125.351 285.373 125.351 285.74C125.351 286.106 125.266 286.47 125.101 286.809C124.936 287.148 124.694 287.456 124.389 287.715C124.084 287.974 123.722 288.179 123.323 288.319C122.925 288.459 122.498 288.531 122.067 288.531Z" fill="#CCCCCC"/>
<path d="M195.363 394.683V364.596C195.364 363.763 195.753 362.965 196.445 362.376C197.136 361.788 198.074 361.457 199.051 361.456H229C229.977 361.457 230.915 361.788 231.606 362.376C232.298 362.965 232.687 363.763 232.688 364.596V394.683C232.687 395.515 232.298 396.313 231.606 396.902C230.915 397.491 229.977 397.822 229 397.823H199.051C198.074 397.822 197.136 397.491 196.445 396.902C195.753 396.313 195.364 395.515 195.363 394.683Z" fill="#E6E6E6"/>
<path d="M206.152 384.664V354.577C206.153 353.744 206.542 352.946 207.234 352.357C207.925 351.769 208.863 351.438 209.841 351.437H239.789C240.767 351.438 241.704 351.769 242.395 352.357C243.087 352.946 243.476 353.744 243.477 354.577V384.664C243.476 385.496 243.087 386.294 242.395 386.883C241.704 387.471 240.767 387.803 239.789 387.804H209.841C208.863 387.803 207.925 387.471 207.234 386.883C206.542 386.294 206.153 385.496 206.152 384.664Z" fill="#6C63FF"/>
<path d="M340.401 375.037C339.274 374.482 338.303 373.724 337.558 372.816C336.812 371.908 336.31 370.872 336.085 369.78C335.861 368.689 335.921 367.569 336.26 366.499C336.599 365.429 337.21 364.436 338.049 363.589L328.766 305.822L348.103 306.63L351.139 362.975C352.717 364.27 353.683 366.012 353.853 367.872C354.023 369.731 353.386 371.58 352.063 373.067C350.739 374.553 348.821 375.575 346.671 375.938C344.522 376.301 342.291 375.98 340.401 375.037Z" fill="#A0616A"/>
<path d="M350.758 307.4C350.362 307.797 349.854 308.103 349.282 308.289L331.904 313.935C331.031 314.219 330.064 314.207 329.201 313.902C328.339 313.597 327.646 313.022 327.266 312.295L311.873 282.843C310.395 280.111 310.143 277.013 311.165 274.134C311.921 272.079 313.314 270.235 315.198 268.798C317.081 267.361 319.385 266.382 321.866 265.966C323.775 265.632 325.746 265.656 327.643 266.036C329.916 266.467 332.026 267.374 333.784 268.675C335.541 269.975 336.89 271.628 337.708 273.484L351.395 304.285C351.625 304.805 351.688 305.369 351.576 305.916C351.464 306.464 351.181 306.977 350.758 307.4Z" fill="#CCCCCC"/>
<path d="M260.199 516.031H248.176L243.816 476.363L260.201 476.55L260.199 516.031Z" fill="#A0616A"/>
<path d="M239.588 513.106H262.776V525.535H224.988C224.988 523.903 225.366 522.287 226.1 520.779C226.833 519.271 227.909 517.901 229.264 516.746C230.62 515.592 232.23 514.677 234.001 514.052C235.772 513.427 237.671 513.106 239.588 513.106Z" fill="#2F2E41"/>
<path d="M316.103 516.031H304.079L298.359 476.549L316.104 476.55L316.103 516.031Z" fill="#A0616A"/>
<path d="M295.49 513.106H318.678V525.535H280.891C280.891 523.903 281.268 522.287 282.002 520.779C282.736 519.271 283.811 517.901 285.167 516.746C286.523 515.592 288.132 514.677 289.903 514.052C291.675 513.427 293.573 513.106 295.49 513.106Z" fill="#2F2E41"/>
<path d="M317.614 501.984L298.73 500.793C297.656 500.725 296.649 500.324 295.897 499.668C295.145 499.011 294.701 498.144 294.648 497.228L290.437 423.145C290.397 422.434 290.053 421.76 289.47 421.25C288.887 420.739 288.106 420.427 287.272 420.373C286.439 420.318 285.61 420.524 284.942 420.953C284.275 421.381 283.814 422.002 283.646 422.7L266.08 495.678C265.863 496.576 265.268 497.375 264.407 497.926C263.546 498.476 262.478 498.741 261.405 498.669L244.335 497.506C243.75 497.466 243.18 497.327 242.659 497.098C242.137 496.868 241.675 496.552 241.299 496.169C240.923 495.785 240.64 495.342 240.468 494.864C240.296 494.387 240.237 493.885 240.295 493.388L256.132 358.567C256.194 358.041 256.386 357.531 256.695 357.071C257.005 356.612 257.425 356.214 257.928 355.902C258.431 355.591 259.006 355.374 259.615 355.265C260.224 355.156 260.853 355.158 261.46 355.27L321.682 366.415C322.68 366.602 323.571 367.076 324.204 367.758C324.838 368.44 325.174 369.288 325.157 370.157L322.352 498.307C322.33 499.29 321.857 500.226 321.034 500.915C320.211 501.604 319.104 501.992 317.95 501.994C317.838 501.994 317.726 501.99 317.614 501.984Z" fill="#2F2E41"/>
<path d="M301.095 245.841C314.398 245.841 325.183 236.66 325.183 225.335C325.183 214.009 314.398 204.828 301.095 204.828C287.792 204.828 277.008 214.009 277.008 225.335C277.008 236.66 287.792 245.841 301.095 245.841Z" fill="#A0616A"/>
<path d="M263.722 368.964C261.405 367.196 259.567 365.022 258.332 362.591C257.097 360.16 256.495 357.53 256.568 354.882C256.568 325.409 286.535 259.561 287.474 257.506C287.566 257.011 288.357 256.798 292.505 254.412C296.656 252.025 302.641 251.658 310.295 253.322C311.073 253.492 311.781 253.84 312.343 254.328C312.905 254.817 313.299 255.427 313.482 256.093L314.906 257.844C315.03 258.288 315.274 258.701 315.62 259.05C315.965 259.399 316.402 259.674 316.896 259.853C323.068 262.067 342.687 272.275 336.001 310.693C329.791 346.38 327.271 367.368 326.476 374.735C326.382 375.609 325.931 376.428 325.202 377.048C324.472 377.668 323.51 378.051 322.483 378.13C319.457 378.36 314.263 378.667 308.077 378.667C293.738 378.667 274.069 377.02 263.722 368.964Z" fill="#CCCCCC"/>
<path d="M234.936 358.045C234.363 357.05 234.054 355.961 234.029 354.853C234.004 353.745 234.265 352.646 234.793 351.633C235.322 350.621 236.104 349.719 237.086 348.991C238.068 348.264 239.225 347.729 240.476 347.424L270.578 295.053L286.106 304.897L251.747 353.124C252.211 354.947 251.872 356.852 250.796 358.477C249.72 360.102 247.981 361.335 245.909 361.942C243.837 362.548 241.575 362.487 239.553 361.768C237.531 361.05 235.888 359.726 234.936 358.045Z" fill="#A0616A"/>
<path d="M287.808 306.795C287.219 306.937 286.597 306.95 286 306.833L267.874 303.277C266.964 303.099 266.169 302.63 265.652 301.967C265.135 301.305 264.937 300.499 265.097 299.715L271.592 267.957C272.153 264.987 273.972 262.295 276.705 260.389C278.678 259.042 281.041 258.172 283.546 257.872C286.05 257.572 288.604 257.852 290.937 258.684C292.74 259.312 294.362 260.266 295.688 261.482C297.293 262.918 298.452 264.673 299.06 266.586C299.668 268.5 299.706 270.513 299.17 272.442L290.376 304.51C290.226 305.051 289.909 305.549 289.458 305.95C289.006 306.352 288.436 306.644 287.808 306.795Z" fill="#CCCCCC"/>
<path d="M295.455 243.863C294.283 242.845 293.417 241.6 292.933 240.235C292.448 238.871 292.358 237.426 292.671 236.026C293.511 232.286 294.004 229.839 294.098 228.948C294.417 225.903 290.801 223.437 287.223 223.045C287.084 223.03 286.968 223.019 286.871 223.013C286.962 223.089 287.06 223.167 287.146 223.236C287.826 223.779 288.672 224.456 288.471 225.154C288.349 225.574 287.898 225.873 287.091 226.065C281.495 227.398 277.185 226.174 273.527 222.211C272.499 221.084 271.792 219.77 271.463 218.372C270.152 212.899 273.644 208.233 276.803 205.284C279.409 202.852 283.633 199.899 288.959 199.646C293.101 199.45 298.026 201.479 299.5 205.135C300.195 204.258 301.121 203.531 302.204 203.011C303.287 202.491 304.497 202.193 305.739 202.141C308.567 202.089 311.35 202.748 313.74 204.036C325.419 209.732 330.439 223.3 324.701 233.665C321.092 240.185 313.272 245.039 304.292 246.333C303.73 246.414 303.161 246.455 302.591 246.455C301.258 246.453 299.939 246.223 298.713 245.777C297.487 245.332 296.379 244.681 295.455 243.863Z" fill="#2F2E41"/>
<path d="M182.5 526H373.74C374 526 374.25 525.912 374.434 525.755C374.618 525.599 374.721 525.386 374.721 525.165C374.721 524.944 374.618 524.731 374.434 524.575C374.25 524.418 374 524.33 373.74 524.33H182.5C182.24 524.33 181.991 524.418 181.807 524.575C181.623 524.731 181.52 524.944 181.52 525.165C181.52 525.386 181.623 525.599 181.807 525.755C181.991 525.912 182.24 526 182.5 526Z" fill="#3F3D56"/>
</g>
<defs>
<clipPath id="clip0_191_969">
<rect width="590" height="526" fill="white" transform="translate(0.5)"/>
</clipPath>
</defs>
</svg>
