<svg width="299" height="24" viewBox="0 0 299 24" fill="none" xmlns="http://www.w3.org/2000/svg">
<g clip-path="url(#clip0_761_3576)">
<rect x="0.65625" y="0.984131" width="297.411" height="22.0849" rx="6.55923" fill="#767680" fill-opacity="0.12"/>
<g filter="url(#filter0_dd_761_3576)">
<rect x="2.125" y="2.45654" width="98.1553" height="19.1403" rx="5.10162" fill="white"/>
<rect x="1.94096" y="2.2725" width="98.5234" height="19.5084" rx="5.28566" stroke="black" stroke-opacity="0.04" stroke-width="0.368082"/>
<path d="M51.436 12.2988V12.6492C51.436 13.1632 51.3674 13.6259 51.2304 14.0371C51.0933 14.4452 50.8986 14.7925 50.6463 15.0791C50.3939 15.3657 50.0933 15.5854 49.7444 15.738C49.3955 15.8907 49.0076 15.967 48.5808 15.967C48.1603 15.967 47.774 15.8907 47.4219 15.738C47.073 15.5854 46.7708 15.3657 46.5154 15.0791C46.2599 14.7925 46.0621 14.4452 45.9219 14.0371C45.7817 13.6259 45.7117 13.1632 45.7117 12.6492V12.2988C45.7117 11.7816 45.7817 11.319 45.9219 10.9109C46.0621 10.5028 46.2584 10.1554 46.5107 9.86883C46.7631 9.57911 47.0637 9.35793 47.4126 9.20528C47.7646 9.05263 48.1509 8.9763 48.5715 8.9763C48.9983 8.9763 49.3861 9.05263 49.735 9.20528C50.0839 9.35793 50.3846 9.57911 50.6369 9.86883C50.8924 10.1554 51.0886 10.5028 51.2257 10.9109C51.3659 11.319 51.436 11.7816 51.436 12.2988ZM50.1369 12.6492V12.2894C50.1369 11.9187 50.1026 11.5931 50.0341 11.3128C49.9656 11.0293 49.8643 10.791 49.7304 10.5978C49.5964 10.4047 49.4313 10.2598 49.235 10.1632C49.0388 10.0635 48.8176 10.0137 48.5715 10.0137C48.3223 10.0137 48.1011 10.0635 47.9079 10.1632C47.7179 10.2598 47.5559 10.4047 47.4219 10.5978C47.288 10.791 47.1852 11.0293 47.1135 11.3128C47.045 11.5931 47.0107 11.9187 47.0107 12.2894V12.6492C47.0107 13.0168 47.045 13.3424 47.1135 13.6259C47.1852 13.9094 47.288 14.1492 47.4219 14.3455C47.559 14.5386 47.7241 14.6851 47.9173 14.7847C48.1104 14.8844 48.3316 14.9343 48.5808 14.9343C48.83 14.9343 49.0512 14.8844 49.2444 14.7847C49.4375 14.6851 49.5995 14.5386 49.7304 14.3455C49.8643 14.1492 49.9656 13.9094 50.0341 13.6259C50.1026 13.3424 50.1369 13.0168 50.1369 12.6492ZM53.5827 11.8969V15.8735H52.3491V10.8174H53.5079L53.5827 11.8969ZM53.3864 13.1632H53.022C53.0251 12.7956 53.0749 12.4623 53.1715 12.1632C53.2681 11.8642 53.4036 11.6072 53.578 11.3922C53.7556 11.1772 53.9659 11.0121 54.2089 10.8969C54.4519 10.7816 54.7229 10.724 55.022 10.724C55.265 10.724 55.4846 10.7582 55.6808 10.8268C55.8771 10.8953 56.0453 11.0044 56.1855 11.1539C56.3288 11.3034 56.4379 11.4997 56.5126 11.7427C56.5905 11.9825 56.6294 12.2785 56.6294 12.6305V15.8735H55.3865V12.6212C55.3865 12.3907 55.3522 12.2084 55.2836 12.0745C55.2182 11.9405 55.1217 11.8455 54.9939 11.7894C54.8693 11.7333 54.7151 11.7053 54.5313 11.7053C54.3413 11.7053 54.1746 11.7442 54.0313 11.8221C53.8911 11.8969 53.7727 12.0012 53.6762 12.1352C53.5827 12.2692 53.5111 12.4234 53.4612 12.5978C53.4114 12.7723 53.3864 12.9607 53.3864 13.1632Z" fill="black"/>
</g>
<rect x="196.75" y="6.55762" width="0.564108" height="10.9364" rx="0.282054" fill="#3C3C43" fill-opacity="0.36"/>
<path d="M148.869 12.2847V12.6586C148.869 13.1726 148.802 13.6336 148.668 14.0418C148.534 14.4499 148.343 14.7972 148.094 15.0838C147.848 15.3704 147.552 15.59 147.206 15.7427C146.86 15.8922 146.477 15.967 146.056 15.967C145.639 15.967 145.257 15.8922 144.911 15.7427C144.569 15.59 144.271 15.3704 144.019 15.0838C143.767 14.7972 143.57 14.4499 143.43 14.0418C143.293 13.6336 143.224 13.1726 143.224 12.6586V12.2847C143.224 11.7707 143.293 11.3112 143.43 10.9062C143.567 10.4981 143.76 10.1508 144.009 9.86416C144.262 9.57444 144.559 9.35481 144.902 9.20528C145.248 9.05263 145.629 8.9763 146.047 8.9763C146.467 8.9763 146.851 9.05263 147.196 9.20528C147.542 9.35481 147.84 9.57444 148.089 9.86416C148.338 10.1508 148.53 10.4981 148.664 10.9062C148.801 11.3112 148.869 11.7707 148.869 12.2847ZM147.696 12.6586V12.2754C147.696 11.8953 147.659 11.5604 147.584 11.2707C147.513 10.9779 147.405 10.7333 147.262 10.5371C147.122 10.3377 146.949 10.1881 146.743 10.0885C146.538 9.98565 146.305 9.93425 146.047 9.93425C145.788 9.93425 145.558 9.98565 145.355 10.0885C145.153 10.1881 144.98 10.3377 144.837 10.5371C144.696 10.7333 144.589 10.9779 144.514 11.2707C144.439 11.5604 144.402 11.8953 144.402 12.2754V12.6586C144.402 13.0386 144.439 13.3751 144.514 13.6679C144.589 13.9608 144.698 14.2084 144.841 14.4109C144.988 14.6103 145.162 14.7614 145.365 14.8642C145.567 14.9639 145.798 15.0137 146.056 15.0137C146.318 15.0137 146.55 14.9639 146.753 14.8642C146.955 14.7614 147.126 14.6103 147.267 14.4109C147.407 14.2084 147.513 13.9608 147.584 13.6679C147.659 13.3751 147.696 13.0386 147.696 12.6586ZM151.395 15.8735H150.268V10.3315C150.268 9.9545 150.338 9.6383 150.479 9.38285C150.622 9.12428 150.826 8.92957 151.091 8.79873C151.356 8.66478 151.669 8.5978 152.03 8.5978C152.142 8.5978 152.253 8.60559 152.362 8.62116C152.471 8.63362 152.577 8.65387 152.68 8.68191L152.652 9.55107C152.589 9.5355 152.521 9.52459 152.446 9.51836C152.374 9.51213 152.296 9.50902 152.212 9.50902C152.041 9.50902 151.893 9.54173 151.768 9.60715C151.647 9.66945 151.553 9.76135 151.488 9.88285C151.426 10.0043 151.395 10.1539 151.395 10.3315V15.8735ZM152.437 10.8174V11.6399H149.493V10.8174H152.437ZM154.719 15.8735H153.593V10.3315C153.593 9.9545 153.663 9.6383 153.803 9.38285C153.946 9.12428 154.15 8.92957 154.415 8.79873C154.68 8.66478 154.993 8.5978 155.354 8.5978C155.467 8.5978 155.577 8.60559 155.686 8.62116C155.795 8.63362 155.901 8.65387 156.004 8.68191L155.976 9.55107C155.914 9.5355 155.845 9.52459 155.77 9.51836C155.699 9.51213 155.621 9.50902 155.537 9.50902C155.365 9.50902 155.217 9.54173 155.093 9.60715C154.971 9.66945 154.878 9.76135 154.812 9.88285C154.75 10.0043 154.719 10.1539 154.719 10.3315V15.8735ZM155.761 10.8174V11.6399H152.817V10.8174H155.761Z" fill="black"/>
<path d="M247.026 12.2847V12.6586C247.026 13.1726 246.959 13.6336 246.825 14.0418C246.691 14.4499 246.499 14.7972 246.25 15.0838C246.004 15.3704 245.708 15.59 245.362 15.7427C245.016 15.8922 244.633 15.967 244.212 15.967C243.795 15.967 243.413 15.8922 243.068 15.7427C242.725 15.59 242.427 15.3704 242.175 15.0838C241.923 14.7972 241.726 14.4499 241.586 14.0418C241.449 13.6336 241.381 13.1726 241.381 12.6586V12.2847C241.381 11.7707 241.449 11.3112 241.586 10.9062C241.723 10.4981 241.917 10.1508 242.166 9.86416C242.418 9.57444 242.716 9.35481 243.058 9.20528C243.404 9.05263 243.786 8.9763 244.203 8.9763C244.624 8.9763 245.007 9.05263 245.353 9.20528C245.698 9.35481 245.996 9.57444 246.245 9.86416C246.494 10.1508 246.686 10.4981 246.82 10.9062C246.957 11.3112 247.026 11.7707 247.026 12.2847ZM245.853 12.6586V12.2754C245.853 11.8953 245.815 11.5604 245.741 11.2707C245.669 10.9779 245.561 10.7333 245.418 10.5371C245.278 10.3377 245.105 10.1881 244.899 10.0885C244.694 9.98565 244.462 9.93425 244.203 9.93425C243.945 9.93425 243.714 9.98565 243.512 10.0885C243.309 10.1881 243.136 10.3377 242.993 10.5371C242.853 10.7333 242.745 10.9779 242.67 11.2707C242.596 11.5604 242.558 11.8953 242.558 12.2754V12.6586C242.558 13.0386 242.596 13.3751 242.67 13.6679C242.745 13.9608 242.854 14.2084 242.998 14.4109C243.144 14.6103 243.318 14.7614 243.521 14.8642C243.723 14.9639 243.954 15.0137 244.212 15.0137C244.474 15.0137 244.706 14.9639 244.909 14.8642C245.111 14.7614 245.283 14.6103 245.423 14.4109C245.563 14.2084 245.669 13.9608 245.741 13.6679C245.815 13.3751 245.853 13.0386 245.853 12.6586ZM249.551 15.8735H248.425V10.3315C248.425 9.9545 248.495 9.6383 248.635 9.38285C248.778 9.12428 248.982 8.92957 249.247 8.79873C249.512 8.66478 249.825 8.5978 250.186 8.5978C250.298 8.5978 250.409 8.60559 250.518 8.62116C250.627 8.63362 250.733 8.65387 250.836 8.68191L250.808 9.55107C250.746 9.5355 250.677 9.52459 250.602 9.51836C250.531 9.51213 250.453 9.50902 250.369 9.50902C250.197 9.50902 250.049 9.54173 249.925 9.60715C249.803 9.66945 249.71 9.76135 249.644 9.88285C249.582 10.0043 249.551 10.1539 249.551 10.3315V15.8735ZM250.593 10.8174V11.6399H247.649V10.8174H250.593ZM252.875 15.8735H251.749V10.3315C251.749 9.9545 251.819 9.6383 251.959 9.38285C252.103 9.12428 252.307 8.92957 252.571 8.79873C252.836 8.66478 253.149 8.5978 253.511 8.5978C253.623 8.5978 253.733 8.60559 253.842 8.62116C253.951 8.63362 254.057 8.65387 254.16 8.68191L254.132 9.55107C254.07 9.5355 254.001 9.52459 253.927 9.51836C253.855 9.51213 253.777 9.50902 253.693 9.50902C253.522 9.50902 253.374 9.54173 253.249 9.60715C253.127 9.66945 253.034 9.76135 252.969 9.88285C252.906 10.0043 252.875 10.1539 252.875 10.3315V15.8735ZM253.917 10.8174V11.6399H250.973V10.8174H253.917Z" fill="black"/>
</g>
<defs>
<filter id="filter0_dd_761_3576" x="-4.13151" y="-1.59244" width="110.669" height="31.6551" filterUnits="userSpaceOnUse" color-interpolation-filters="sRGB">
<feFlood flood-opacity="0" result="BackgroundImageFix"/>
<feColorMatrix in="SourceAlpha" type="matrix" values="0 0 0 0 0 0 0 0 0 0 0 0 0 0 0 0 0 0 127 0" result="hardAlpha"/>
<feOffset dy="2.20849"/>
<feGaussianBlur stdDeviation="0.368082"/>
<feColorMatrix type="matrix" values="0 0 0 0 0 0 0 0 0 0 0 0 0 0 0 0 0 0 0.04 0"/>
<feBlend mode="normal" in2="BackgroundImageFix" result="effect1_dropShadow_761_3576"/>
<feColorMatrix in="SourceAlpha" type="matrix" values="0 0 0 0 0 0 0 0 0 0 0 0 0 0 0 0 0 0 127 0" result="hardAlpha"/>
<feOffset dy="2.20849"/>
<feGaussianBlur stdDeviation="2.94466"/>
<feColorMatrix type="matrix" values="0 0 0 0 0 0 0 0 0 0 0 0 0 0 0 0 0 0 0.12 0"/>
<feBlend mode="normal" in2="effect1_dropShadow_761_3576" result="effect2_dropShadow_761_3576"/>
<feBlend mode="normal" in="SourceGraphic" in2="effect2_dropShadow_761_3576" result="shape"/>
</filter>
<clipPath id="clip0_761_3576">
<rect x="0.65625" y="0.984131" width="297.411" height="22.0849" rx="6.55923" fill="white"/>
</clipPath>
</defs>
</svg>
