<svg width="297" height="40" viewBox="0 0 297 40" fill="none" xmlns="http://www.w3.org/2000/svg">
<path d="M14.3613 19.2276H16.8027C16.8717 19.2276 16.9408 19.2449 16.9925 19.2967L20.7797 22.6784C21.2197 23.0839 21.5734 23.2737 22.022 23.2737C22.669 23.2737 23.1521 22.7906 23.1521 22.1522V8.97884C23.1521 8.33182 22.669 7.81421 22.0134 7.81421C21.5734 7.81421 21.2628 8.01263 20.7797 8.4526L16.9925 11.8085C16.9408 11.8602 16.8717 11.8775 16.8027 11.8775H14.3613C13.0845 11.8775 12.4375 12.5504 12.4375 13.8962V17.2089C12.4375 18.5634 13.0931 19.2276 14.3613 19.2276ZM14.5166 17.6834C14.2319 17.6834 14.0939 17.5454 14.0939 17.2607V13.8531C14.0939 13.5597 14.2319 13.4217 14.5166 13.4217H17.2082C17.4411 13.4217 17.6137 13.3786 17.8121 13.1974L21.2456 10.0658C21.2887 10.0313 21.3319 10.0054 21.3836 10.0054C21.4526 10.0054 21.5044 10.0486 21.5044 10.1262V20.953C21.5044 21.0393 21.4526 21.0824 21.3923 21.0824C21.3405 21.0824 21.2974 21.0652 21.2456 21.022L17.8121 17.9077C17.6137 17.7266 17.4411 17.6834 17.2082 17.6834H14.5166ZM26.0853 19.3916C26.4563 19.6245 26.9394 19.5468 27.2068 19.1672C27.9056 18.2269 28.3197 16.9156 28.3197 15.5439C28.3197 14.1723 27.9056 12.861 27.2068 11.912C26.9394 11.541 26.4563 11.4548 26.0853 11.705C25.6626 11.981 25.5849 12.49 25.9214 12.9817C26.3959 13.6633 26.6633 14.5777 26.6633 15.5439C26.6633 16.5015 26.3959 17.4074 25.9214 18.0975C25.5849 18.5979 25.6626 19.1069 26.0853 19.3916Z" fill="#3C3C43" fill-opacity="0.6"/>
<rect x="40.2031" y="14.0718" width="208.458" height="2.94466" rx="1.47233" fill="#787880" fill-opacity="0.2"/>
<rect x="40.2031" y="14.0718" width="94.2364" height="2.94466" rx="1.47233" fill="#007AFF"/>
<g filter="url(#filter0_dd_761_3578)">
<path fill-rule="evenodd" clip-rule="evenodd" d="M124.134 25.8504C129.826 25.8504 134.441 21.2361 134.441 15.5441C134.441 9.85208 129.826 5.23779 124.134 5.23779C118.442 5.23779 113.828 9.85208 113.828 15.5441C113.828 21.2361 118.442 25.8504 124.134 25.8504Z" fill="white"/>
</g>
<path d="M281.22 24.0382C281.6 24.2884 282.109 24.1762 282.385 23.7621C283.903 21.4846 284.817 18.655 284.817 15.5493C284.817 12.435 283.886 9.61396 282.385 7.32783C282.109 6.90511 281.6 6.80158 281.22 7.05177C280.806 7.3192 280.745 7.82819 281.03 8.28542C282.35 10.2955 283.17 12.7887 283.17 15.5493C283.17 18.2927 282.35 20.8031 281.03 22.8045C280.745 23.2618 280.806 23.7708 281.22 24.0382ZM262.525 19.233H264.967C265.036 19.233 265.105 19.2502 265.157 19.302L268.944 22.6838C269.392 23.0892 269.737 23.279 270.195 23.279C270.833 23.279 271.316 22.7959 271.316 22.1575V8.9842C271.316 8.33718 270.833 7.81956 270.177 7.81956C269.737 7.81956 269.427 8.01798 268.944 8.45796L265.157 11.8138C265.105 11.8656 265.036 11.8828 264.967 11.8828H262.525C261.249 11.8828 260.602 12.5557 260.602 13.9015V17.2143C260.602 18.5687 261.257 19.233 262.525 19.233ZM277.726 21.7003C278.123 21.9418 278.606 21.8556 278.873 21.4501C280.004 19.8628 280.651 17.7319 280.651 15.5407C280.651 13.3494 280.012 11.2099 278.873 9.63122C278.606 9.22575 278.123 9.13086 277.726 9.38104C277.312 9.63984 277.252 10.1575 277.553 10.6147C278.477 11.9605 279.003 13.7118 279.003 15.5407C279.003 17.3609 278.459 19.1122 277.553 20.4666C277.26 20.9239 277.312 21.4329 277.726 21.7003ZM262.681 17.6888C262.396 17.6888 262.258 17.5507 262.258 17.2661V13.8584C262.258 13.5651 262.396 13.4271 262.681 13.4271H265.372C265.605 13.4271 265.778 13.3839 265.976 13.2028L269.41 10.0712C269.453 10.0367 269.496 10.0108 269.548 10.0108C269.617 10.0108 269.668 10.0539 269.668 10.1316V20.9584C269.668 21.0446 269.617 21.0878 269.556 21.0878C269.505 21.0878 269.461 21.0705 269.41 21.0274L265.976 17.9131C265.778 17.7319 265.605 17.6888 265.372 17.6888H262.681ZM274.258 19.3883C274.629 19.6298 275.112 19.5436 275.379 19.164C276.078 18.2323 276.492 16.9123 276.492 15.5407C276.492 14.169 276.078 12.8577 275.379 11.9174C275.112 11.5378 274.629 11.4515 274.258 11.7017C273.835 11.9777 273.749 12.4867 274.094 12.9871C274.569 13.6686 274.836 14.5831 274.836 15.5407C274.836 16.4983 274.56 17.4041 274.094 18.0942C273.758 18.5946 273.835 19.1036 274.258 19.3883Z" fill="#3C3C43" fill-opacity="0.6"/>
<defs>
<filter id="filter0_dd_761_3578" x="104.258" y="0.0846395" width="39.7497" height="39.7528" filterUnits="userSpaceOnUse" color-interpolation-filters="sRGB">
<feFlood flood-opacity="0" result="BackgroundImageFix"/>
<feColorMatrix in="SourceAlpha" type="matrix" values="0 0 0 0 0 0 0 0 0 0 0 0 0 0 0 0 0 0 127 0" result="hardAlpha"/>
<feOffset dy="4.41699"/>
<feGaussianBlur stdDeviation="4.78507"/>
<feColorMatrix type="matrix" values="0 0 0 0 0 0 0 0 0 0 0 0 0 0 0 0 0 0 0.12 0"/>
<feBlend mode="normal" in2="BackgroundImageFix" result="effect1_dropShadow_761_3578"/>
<feColorMatrix in="SourceAlpha" type="matrix" values="0 0 0 0 0 0 0 0 0 0 0 0 0 0 0 0 0 0 127 0" result="hardAlpha"/>
<feOffset dy="0.368082"/>
<feGaussianBlur stdDeviation="1.47233"/>
<feColorMatrix type="matrix" values="0 0 0 0 0 0 0 0 0 0 0 0 0 0 0 0 0 0 0.12 0"/>
<feBlend mode="normal" in2="effect1_dropShadow_761_3578" result="effect2_dropShadow_761_3578"/>
<feBlend mode="normal" in="SourceGraphic" in2="effect2_dropShadow_761_3578" result="shape"/>
</filter>
</defs>
</svg>
