<svg width="460" height="108" viewBox="0 0 460 108" fill="none" xmlns="http://www.w3.org/2000/svg">
<path d="M1.46393 101.92C2.82236 103.618 41.0968 75.3703 44.523 72.5399C70.1818 51.3435 96.423 39.4352 128.811 31.6965C155.101 25.4146 183.633 15.5339 210.883 15.2242C224.577 15.0686 240.018 13.8256 253.268 17.7287C265.713 21.3946 273.665 36.0689 278.891 46.8201C283.947 57.2199 285.827 64.9805 285.827 76.0078C285.827 91.1035 266.047 100.5 253.557 104.425C242.841 107.793 231.061 107.449 219.938 107.122C206.472 106.726 196.642 81.2507 194.7 70.517C187.458 30.4969 223.626 15.699 255.484 4.82066C271.452 -0.632105 289.202 1.35282 305.864 1.35282C323.075 1.35282 337.525 5.11505 351.716 15.2242C364.057 24.0151 377.767 30.3722 389.188 40.5587C399.218 49.5042 408.871 58.5076 418.376 68.0125C430.222 79.8587 442.915 93.794 459.219 98.4525" stroke="black" stroke-linecap="round"/>
</svg>
