<svg width="474" height="88" viewBox="0 0 474 88" fill="none" xmlns="http://www.w3.org/2000/svg">
<path d="M472.606 1.77949C466.993 1.77949 463.407 2.44255 458.328 5.26381C446.754 11.6939 436.274 19.7964 424.59 26.1697C413.565 32.1834 402.055 37.1612 391.022 43.0814C360.461 59.4795 326.654 64.0266 291.761 62.8825C269.049 62.1379 261.399 45.3145 263.122 24.64C264.303 10.4688 285.295 -4.46479 298.9 3.30919C307.075 7.98098 314.938 22.2177 316.661 31.6936C318.691 42.8594 322.681 55.0734 316.916 66.0269C314.312 70.974 303.512 75.7787 298.56 77.9246C278.932 86.4298 255.714 88.9815 234.822 84.0434C216.257 79.6553 199.635 70.4662 182.982 61.4378C162.603 50.3888 142.652 42.7254 120.774 35.4329C105.113 30.2124 89.6128 27.7844 73.0137 27.7844C60.0867 27.7844 44.3266 25.6341 32.2217 30.8438C25.2408 33.8483 17.6342 39.3058 11.4857 43.7613C8.80579 45.7033 2.78985 48.0656 1.4577 50.7299" stroke="black" stroke-linecap="round"/>
</svg>
