<svg width="20" height="20" viewBox="0 0 20 20" fill="none" xmlns="http://www.w3.org/2000/svg">
<path d="M16.5 6.60051V14.4005C16.5 16.8005 15.068 17.6005 13.3 17.6005H6.90001C5.13201 17.6005 3.70001 16.8005 3.70001 14.4005V6.60051C3.70001 4.00051 5.13201 3.40051 6.90001 3.40051C6.90001 3.89651 7.09999 4.34451 7.42799 4.67251C7.75599 5.00051 8.20401 5.20051 8.70001 5.20051H11.5C12.492 5.20051 13.3 4.39251 13.3 3.40051C15.068 3.40051 16.5 4.00051 16.5 6.60051Z" stroke="#7165FF" stroke-width="1.2" stroke-linecap="round" stroke-linejoin="round"/>
<path d="M13.3 3.40046C13.3 4.39246 12.492 5.20046 11.5 5.20046H8.70002C8.20402 5.20046 7.756 5.00046 7.428 4.67246C7.1 4.34446 6.90002 3.89646 6.90002 3.40046C6.90002 2.40846 7.70802 1.60046 8.70002 1.60046H11.5C11.996 1.60046 12.444 1.80047 12.772 2.12847C13.1 2.45647 13.3 2.90446 13.3 3.40046Z" stroke="#7165FF" stroke-width="1.2" stroke-linecap="round" stroke-linejoin="round"/>
<path d="M6.90002 10.4005H10.1" stroke="#7165FF" stroke-width="1.2" stroke-linecap="round" stroke-linejoin="round"/>
<path d="M6.90002 13.6005H13.3" stroke="#7165FF" stroke-width="1.2" stroke-linecap="round" stroke-linejoin="round"/>
</svg>
