<svg width="20" height="21" viewBox="0 0 20 21" fill="none" xmlns="http://www.w3.org/2000/svg">
<path d="M18.5253 0H1.08621C0.648416 0 0.293518 0.391751 0.293518 0.875V20.125C0.293518 20.6082 0.648416 21 1.08621 21H10.4551V12.8677H7.97584V9.69838H10.4551V7.3611C10.4551 4.6487 11.9559 3.17175 14.1479 3.17175C15.1979 3.17175 16.1003 3.25804 16.3633 3.29661V6.13123L14.843 6.13199C13.6509 6.13199 13.4201 6.75731 13.4201 7.67491V9.69838H16.2632L15.893 12.8677H13.4201V21H18.5253C18.9631 21 19.318 20.6082 19.318 20.125V0.875C19.318 0.391751 18.9631 0 18.5253 0Z" fill="#7D818D"/>
</svg>
