<svg width="20" height="20" viewBox="0 0 20 20" fill="none" xmlns="http://www.w3.org/2000/svg">
<path d="M4.87599 7.60061C6.42239 7.60061 7.67599 6.34701 7.67599 4.80061C7.67599 3.25421 6.42239 2.00061 4.87599 2.00061C3.32959 2.00061 2.07599 3.25421 2.07599 4.80061C2.07599 6.34701 3.32959 7.60061 4.87599 7.60061Z" stroke="#292D32" stroke-width="1.2"/>
<path d="M14.076 12.4006H16.476C17.356 12.4006 18.076 13.1206 18.076 14.0006V16.4006C18.076 17.2806 17.356 18.0006 16.476 18.0006H14.076C13.196 18.0006 12.476 17.2806 12.476 16.4006V14.0006C12.476 13.1206 13.196 12.4006 14.076 12.4006Z" stroke="#292D32" stroke-width="1.2"/>
<path d="M10.1 4.40063H12.244C13.724 4.40063 14.412 6.23263 13.3 7.20863L6.90798 12.8006C5.79598 13.7686 6.48398 15.6006 7.95598 15.6006H10.1" stroke="#292D32" stroke-width="1.2" stroke-linecap="round" stroke-linejoin="round"/>
<path d="M4.88896 4.80063H4.8982" stroke="#292D32" stroke-width="1.6" stroke-linecap="round" stroke-linejoin="round"/>
<path d="M15.289 15.2006H15.2982" stroke="#292D32" stroke-width="1.6" stroke-linecap="round" stroke-linejoin="round"/>
</svg>
