<svg width="20" height="21" viewBox="0 0 20 21" fill="none" xmlns="http://www.w3.org/2000/svg">
<path fill-rule="evenodd" clip-rule="evenodd" d="M6.2175 0.063C7.23214 0.01225 7.55595 0 10.1393 0C12.7227 0 13.0465 0.01225 14.0611 0.063C15.6077 0.140875 16.9651 0.559125 18.0551 1.76225C19.1454 2.96581 19.5239 4.46469 19.5945 6.17094C19.6405 7.29094 19.6516 7.64837 19.6516 10.5C19.6516 13.3516 19.6405 13.7091 19.5945 14.8291C19.5239 16.5362 19.145 18.0346 18.0551 19.2377C16.9647 20.4413 15.6065 20.8591 14.0611 20.937C13.0465 20.9877 12.7227 21 10.1393 21C7.55595 21 7.23214 20.9877 6.2175 20.937C4.67097 20.8591 3.31349 20.4409 2.22355 19.2377C1.13321 18.0342 0.754698 16.5353 0.684149 14.8291C0.638173 13.7091 0.627075 13.3516 0.627075 10.5C0.627075 7.64837 0.638173 7.29094 0.684149 6.17094C0.754698 4.46381 1.1336 2.96537 2.22355 1.76225C3.31389 0.558687 4.67176 0.140875 6.2175 0.063ZM13.9828 1.95285C12.9796 1.9021 12.6788 1.8916 10.139 1.8916C7.59926 1.8916 7.29844 1.90254 6.29529 1.95285C5.21288 2.00754 4.20815 2.24685 3.43528 3.09998C2.66241 3.9531 2.44561 5.06216 2.39606 6.25697C2.35009 7.36428 2.34058 7.69635 2.34058 10.4998C2.34058 13.3033 2.35048 13.6354 2.39606 14.7427C2.44561 15.9375 2.66241 17.0466 3.43528 17.8997C4.20815 18.7528 5.21288 18.9921 6.29529 19.0468C7.29804 19.0976 7.59887 19.1081 10.139 19.1081C12.6792 19.1081 12.98 19.0971 13.9828 19.0468C15.0652 18.9921 16.0699 18.7528 16.8428 17.8997C17.6157 17.0466 17.8325 15.9375 17.882 14.7427C17.928 13.6354 17.9375 13.3033 17.9375 10.4998C17.9375 7.69635 17.9276 7.36428 17.882 6.25697C17.8325 5.06216 17.6157 3.9531 16.8428 3.09998C16.0699 2.24685 15.0652 2.00754 13.9828 1.95285Z" fill="#7D818D"/>
<path fill-rule="evenodd" clip-rule="evenodd" d="M5.81586 10.9775C5.81586 8.0782 7.945 5.72754 10.572 5.72754C13.199 5.72754 15.3281 8.07777 15.3281 10.9775C15.3281 13.8773 13.199 16.2275 10.572 16.2275C7.945 16.2275 5.81586 13.8769 5.81586 10.9775ZM7.4856 10.9773C7.4856 12.8594 8.86798 14.3853 10.573 14.3853C12.278 14.3853 13.6604 12.8594 13.6604 10.9773C13.6604 9.09526 12.278 7.56934 10.573 7.56934C8.86798 7.56934 7.4856 9.09526 7.4856 10.9773Z" fill="#7D818D"/>
<ellipse cx="14.8945" cy="5.25019" rx="1.29682" ry="1.43183" fill="#7D818D"/>
</svg>
