<svg width="49" height="96" viewBox="0 0 49 96" fill="none" xmlns="http://www.w3.org/2000/svg">
<path d="M22.7564 1C19.6591 5.60821 16.7727 9.99609 15.1096 15.349C13.2052 21.4789 13.0035 27.7721 13.0405 34.1512C13.0928 43.1735 12.2638 55.3859 18.5957 62.6918C20.1091 64.4381 21.5429 65.9978 23.9709 65.7281C32.5797 64.7715 27.1058 52.9934 24.0834 49.1075C21.1841 45.3798 14.7675 44.6324 10.4765 44.7218C7.55851 44.7826 4.04036 46.6897 2.28994 49.085C0.0649751 52.1297 1.06821 58.1765 2.67228 61.3424C7.64417 71.1553 17.1301 79.9324 27.6594 83.5631C30.9876 84.7108 34.3465 85.2052 37.5553 86.7343C40.1818 87.9861 42.9471 89.5821 45.8318 90.0629" stroke="#4F4F4F" stroke-linecap="round"/>
<path d="M44.2123 85.6099C44.3921 86.1043 48.5169 90.0288 48.2606 90.063C45.7757 90.3943 42.5393 93.0422 40.9736 94.921" stroke="#4F4F4F" stroke-linecap="round"/>
</svg>
