<svg width="20" height="21" viewBox="0 0 20 21" fill="none" xmlns="http://www.w3.org/2000/svg">
<path fill-rule="evenodd" clip-rule="evenodd" d="M0.806969 0H18.2461C18.6821 0 19.0388 0.39375 19.0388 0.875V20.125C19.0388 20.6062 18.6821 21 18.2461 21H0.806969C0.370991 21 0.0142822 20.6062 0.0142822 20.125V0.875C0.0142822 0.39375 0.370991 0 0.806969 0ZM2.82866 17.8937H5.64206V7.875H2.82866V17.8937ZM4.25293 6.51914C3.34155 6.51914 2.62829 5.73164 2.62829 4.72539C2.62829 3.71914 3.34155 2.93164 4.25293 2.93164C5.16431 2.93164 5.87757 3.71914 5.87757 4.72539C5.87757 5.68789 5.16431 6.51914 4.25293 6.51914ZM13.4127 17.8945H16.1871V12.382C16.1871 9.66953 15.6719 7.61328 12.8182 7.61328C11.4706 7.61328 10.5194 8.44453 10.1627 9.23203H10.1231V7.87578H7.42794V17.8945H10.242V12.9508C10.242 11.6383 10.4798 10.3695 11.9463 10.3695C13.4127 10.3695 13.4127 11.857 13.4127 13.0383V17.8945Z" fill="#7D818D"/>
</svg>
