<svg width="19" height="18" viewBox="0 0 19 18" fill="none" xmlns="http://www.w3.org/2000/svg">
<path d="M8.95001 1.50043H7.45001C3.70001 1.50043 2.20001 3.00043 2.20001 6.75043V11.2504C2.20001 15.0004 3.70001 16.5004 7.45001 16.5004H11.95C15.7 16.5004 17.2 15.0004 17.2 11.2504V9.75043" stroke="#292D32" stroke-width="1.2" stroke-linecap="round" stroke-linejoin="round"/>
<path d="M12.73 2.26543L6.82001 8.17543C6.59501 8.40043 6.37001 8.84293 6.32501 9.16543L6.00251 11.4229C5.88251 12.2404 6.46001 12.8104 7.27751 12.6979L9.53501 12.3754C9.85001 12.3304 10.2925 12.1054 10.525 11.8804L16.435 5.97043C17.455 4.95043 17.935 3.76543 16.435 2.26543C14.935 0.765434 13.75 1.24543 12.73 2.26543Z" stroke="#292D32" stroke-width="1.2" stroke-miterlimit="10" stroke-linecap="round" stroke-linejoin="round"/>
<path d="M11.8825 3.11285C12.385 4.90535 13.7875 6.30785 15.5875 6.81785" stroke="#292D32" stroke-width="1.2" stroke-miterlimit="10" stroke-linecap="round" stroke-linejoin="round"/>
</svg>
