<svg width="41" height="92" viewBox="0 0 41 92" fill="none" xmlns="http://www.w3.org/2000/svg">
<path d="M34.2034 1.22949C35.4228 3.36337 36.0334 5.66773 36.528 8.06302C37.4219 12.3911 38.8627 16.6073 39.4939 20.9886C40.9672 31.2147 39.5507 41.2264 29.1334 45.6775C22.5048 48.5097 15.2095 48.0664 11.0175 41.4692C9.04081 38.3583 6.5856 32.0703 11.1979 30.1668C19.7314 26.645 24.1034 39.1857 24.1034 45.4571C24.1034 52.3414 23.268 58.6787 20.2358 64.9958C15.7058 74.4333 8.68831 82.2373 3.18201 91.0473" stroke="#4F4F4F" stroke-linecap="round"/>
<path d="M1.73905 82.751C1.73905 84.0525 0.552428 91.4486 2.78111 91.4081C7.41217 91.3239 11.5448 88.5224 16.1676 88.5224" stroke="#4F4F4F" stroke-linecap="round"/>
</svg>
