<svg width="26" height="26" viewBox="0 0 26 26" fill="none" xmlns="http://www.w3.org/2000/svg">
<path d="M12.8042 20.1833C16.7716 20.1833 19.9879 16.9671 19.9879 12.9996C19.9879 9.03217 16.7716 5.81592 12.8042 5.81592C8.83671 5.81592 5.62045 9.03217 5.62045 12.9996C5.62045 16.9671 8.83671 20.1833 12.8042 20.1833Z" fill="white"/>
<path d="M12.8052 24.2477C12.2407 24.2477 11.7789 23.827 11.7789 23.2625V23.1804C11.7789 22.616 12.2407 22.1542 12.8052 22.1542C13.3696 22.1542 13.8314 22.616 13.8314 23.1804C13.8314 23.7449 13.3696 24.2477 12.8052 24.2477ZM20.1325 21.3537C19.8657 21.3537 19.6092 21.2511 19.4039 21.0561L19.2705 20.9227C18.8703 20.5225 18.8703 19.8759 19.2705 19.4757C19.6707 19.0755 20.3173 19.0755 20.7175 19.4757L20.8509 19.6091C21.2511 20.0094 21.2511 20.6559 20.8509 21.0561C20.6559 21.2511 20.3994 21.3537 20.1325 21.3537ZM5.47778 21.3537C5.21096 21.3537 4.9544 21.2511 4.74915 21.0561C4.34891 20.6559 4.34891 20.0094 4.74915 19.6091L4.88256 19.4757C5.28279 19.0755 5.92933 19.0755 6.32956 19.4757C6.7298 19.8759 6.7298 20.5225 6.32956 20.9227L6.19615 21.0561C6.00116 21.2511 5.73434 21.3537 5.47778 21.3537ZM23.0676 14.0264H22.9855C22.4211 14.0264 21.9593 13.5645 21.9593 13.0001C21.9593 12.4357 22.4211 11.9739 22.9855 11.9739C23.5499 11.9739 24.0528 12.4357 24.0528 13.0001C24.0528 13.5645 23.632 14.0264 23.0676 14.0264ZM2.62482 14.0264H2.54272C1.97829 14.0264 1.51648 13.5645 1.51648 13.0001C1.51648 12.4357 1.97829 11.9739 2.54272 11.9739C3.10716 11.9739 3.61002 12.4357 3.61002 13.0001C3.61002 13.5645 3.18926 14.0264 2.62482 14.0264ZM19.9991 6.83238C19.7323 6.83238 19.4757 6.72976 19.2705 6.53477C18.8703 6.13454 18.8703 5.488 19.2705 5.08777L19.4039 4.95436C19.8041 4.55412 20.4507 4.55412 20.8509 4.95436C21.2511 5.35459 21.2511 6.00112 20.8509 6.40136L20.7175 6.53477C20.5225 6.72976 20.266 6.83238 19.9991 6.83238ZM5.61119 6.83238C5.34437 6.83238 5.08781 6.72976 4.88256 6.53477L4.74915 6.3911C4.34891 5.99086 4.34891 5.34433 4.74915 4.94409C5.14938 4.54386 5.79592 4.54386 6.19615 4.94409L6.32956 5.07751C6.7298 5.47774 6.7298 6.12427 6.32956 6.52451C6.13458 6.72976 5.86775 6.83238 5.61119 6.83238ZM12.8052 3.80496C12.2407 3.80496 11.7789 3.3842 11.7789 2.81977V2.73767C11.7789 2.17324 12.2407 1.71143 12.8052 1.71143C13.3696 1.71143 13.8314 2.17324 13.8314 2.73767C13.8314 3.3021 13.3696 3.80496 12.8052 3.80496Z" fill="white"/>
</svg>
