<svg width="20" height="20" viewBox="0 0 20 20" fill="none" xmlns="http://www.w3.org/2000/svg">
<path d="M10.228 9.09643C10.148 9.08843 10.052 9.08843 9.96397 9.09643C8.05997 9.03243 6.54797 7.47243 6.54797 5.55243C6.54797 3.59243 8.13197 2.00043 10.1 2.00043C12.06 2.00043 13.652 3.59243 13.652 5.55243C13.644 7.47243 12.132 9.03243 10.228 9.09643Z" stroke="#292D32" stroke-width="1.2" stroke-linecap="round" stroke-linejoin="round"/>
<path d="M6.228 12.0484C4.292 13.3444 4.292 15.4564 6.228 16.7444C8.428 18.2164 12.036 18.2164 14.236 16.7444C16.172 15.4484 16.172 13.3364 14.236 12.0484C12.044 10.5844 8.436 10.5844 6.228 12.0484Z" stroke="#292D32" stroke-width="1.2" stroke-linecap="round" stroke-linejoin="round"/>
</svg>
