<svg width="201" height="37" viewBox="0 0 201 37" fill="none" xmlns="http://www.w3.org/2000/svg">
<path d="M6.59323 0.698486H30.6391C34.2848 0.698486 37.2323 3.64605 37.2323 7.29171V30.4068C37.2323 34.0525 34.2848 37 30.6391 37H6.59323C2.94756 37 0 34.0525 0 30.4068V7.29171C0 3.64605 2.94756 0.698486 6.59323 0.698486Z" fill="#330000"/>
<path d="M17.9962 22.4175H12.2252L11.0461 26.0632C11.0151 26.2028 10.891 26.2959 10.7514 26.2803H7.83486C7.66421 26.2803 7.61767 26.1873 7.66421 26.0011L12.6596 11.6201C12.7061 11.465 12.7526 11.2943 12.8147 11.1082C12.8767 10.7824 12.9078 10.4411 12.9078 10.0998C12.8923 10.0222 12.9543 9.94466 13.0319 9.92915H17.0499C17.174 9.92915 17.236 9.97569 17.2515 10.0533L22.914 26.0321C22.9605 26.2028 22.914 26.2803 22.7588 26.2803H19.5165C19.4079 26.2959 19.2993 26.2183 19.2683 26.1097L17.9962 22.4175ZM13.125 19.2683H17.0654C16.9723 18.9425 16.8482 18.5546 16.7086 18.1513C16.5689 17.7324 16.4293 17.2825 16.2897 16.8171C16.1346 16.3362 15.9949 15.8708 15.8398 15.3899C15.6847 14.909 15.5451 14.4591 15.4209 14.0092C15.2968 13.5748 15.1882 13.1715 15.0797 12.7991H15.0486C14.909 13.4662 14.7384 14.1333 14.5212 14.8004C14.2885 15.545 14.0558 16.3207 13.8075 17.0964C13.5904 17.8876 13.3577 18.6167 13.125 19.2683ZM26.3735 12.644C25.8615 12.6595 25.3651 12.4578 24.9928 12.101C24.636 11.7132 24.4498 11.2013 24.4653 10.6738C24.4498 10.1463 24.6515 9.6499 25.0238 9.29309C25.3961 8.93628 25.8925 8.75012 26.4045 8.75012C27.0095 8.75012 27.4749 8.93628 27.8162 9.29309C28.1575 9.66542 28.3437 10.1618 28.3282 10.6738C28.3437 11.2013 28.1575 11.7132 27.7852 12.101C27.4284 12.4734 26.9009 12.675 26.3735 12.644ZM24.636 26.1097V14.1643C24.636 14.0092 24.698 13.9471 24.8376 13.9471H27.9093C28.0489 13.9471 28.111 14.0247 28.111 14.1643V26.1097C28.111 26.2803 28.0489 26.3579 27.9093 26.3579H24.8687C24.7135 26.3579 24.636 26.2648 24.636 26.1097Z" fill="#FF9A00"/>
<path d="M65.6304 29.0002V9.61438H70.7174V29.0002H65.6304ZM74.0289 29.0002V8.76195H78.9235V29.0002H74.0289ZM81.9506 29.0002V8.76195H86.8452V29.0002H81.9506ZM95.0143 29.3027C93.2362 29.3027 91.9163 28.8169 91.0547 27.8453C90.2114 26.8554 89.7898 25.3613 89.7898 23.3632V15.0314H94.6844V23.3907C94.6844 24.1239 94.831 24.6739 95.1243 25.0405C95.436 25.3888 95.9034 25.563 96.5267 25.563C97.2233 25.563 97.7916 25.3155 98.2316 24.8205C98.6898 24.3073 98.919 23.6382 98.919 22.8132V15.0314H103.814V29.0002H99.0565V26.4979H99.4689C99.029 27.3962 98.4332 28.0928 97.6816 28.5877C96.93 29.0643 96.0409 29.3027 95.0143 29.3027ZM112.232 29.3027C110.931 29.3027 109.748 29.1743 108.685 28.9177C107.64 28.6427 106.751 28.2761 106.018 27.8178L107.2 24.6281C107.915 25.0314 108.713 25.3613 109.593 25.618C110.491 25.8746 111.38 26.0029 112.26 26.0029C112.956 26.0029 113.461 25.9021 113.772 25.7005C114.102 25.4805 114.267 25.1963 114.267 24.848C114.267 24.5731 114.166 24.3531 113.965 24.1881C113.763 24.0231 113.461 23.904 113.057 23.8306L110.088 23.3082C108.914 23.0882 107.998 22.6574 107.338 22.0158C106.696 21.3559 106.375 20.5034 106.375 19.4585C106.375 18.5053 106.632 17.6803 107.145 16.9837C107.659 16.2688 108.392 15.7188 109.345 15.3339C110.298 14.9306 111.426 14.7289 112.727 14.7289C113.791 14.7289 114.799 14.8481 115.752 15.0864C116.724 15.3247 117.567 15.7005 118.282 16.2138L117.017 19.321C116.449 18.9361 115.78 18.6244 115.01 18.3861C114.258 18.1295 113.552 18.0011 112.892 18.0011C112.104 18.0011 111.545 18.1203 111.215 18.3586C110.885 18.5786 110.72 18.8536 110.72 19.1835C110.72 19.4402 110.812 19.6602 110.995 19.8435C111.178 20.0085 111.472 20.1276 111.875 20.201L114.845 20.7234C116.055 20.9251 116.98 21.3467 117.622 21.9883C118.282 22.6116 118.612 23.464 118.612 24.5456C118.612 25.5538 118.337 26.4154 117.787 27.1303C117.255 27.827 116.513 28.3677 115.56 28.7527C114.606 29.1193 113.497 29.3027 112.232 29.3027ZM127.795 29.3027C125.816 29.3027 124.321 28.8352 123.313 27.9003C122.323 26.947 121.828 25.508 121.828 23.5832V18.6336H119.216V15.0314H121.828V11.7317L126.723 10.5768V15.0314H130.133V18.6336H126.723V23.3907C126.723 24.1973 126.906 24.7381 127.273 25.013C127.64 25.2697 128.079 25.398 128.593 25.398C128.904 25.398 129.17 25.3797 129.39 25.343C129.629 25.288 129.876 25.2147 130.133 25.123V28.8902C129.729 29.0552 129.326 29.1652 128.923 29.2202C128.538 29.2752 128.162 29.3027 127.795 29.3027ZM132.032 29.0002V18.8536C132.032 18.212 132.013 17.5703 131.977 16.9287C131.94 16.2871 131.885 15.6547 131.812 15.0314H136.541L137.064 19.321H136.321C136.505 18.2761 136.798 17.4145 137.201 16.7363C137.605 16.058 138.109 15.5539 138.714 15.2239C139.319 14.8939 140.033 14.7289 140.858 14.7289C141.243 14.7289 141.528 14.7473 141.711 14.7839C141.912 14.8023 142.123 14.8573 142.343 14.9489V19.2385C141.885 19.0369 141.518 18.9086 141.243 18.8536C140.968 18.7986 140.611 18.7711 140.171 18.7711C139.419 18.7711 138.805 18.9086 138.329 19.1835C137.852 19.4402 137.504 19.8435 137.284 20.3934C137.082 20.9434 136.981 21.6492 136.981 22.5108V29.0002H132.032ZM149.185 29.3027C147.976 29.3027 146.912 29.0185 145.996 28.4502C145.079 27.8636 144.355 27.0204 143.823 25.9205C143.31 24.8205 143.053 23.519 143.053 22.0158C143.053 20.4943 143.31 19.1927 143.823 18.1111C144.355 17.0112 145.079 16.1771 145.996 15.6089C146.912 15.0222 147.976 14.7289 149.185 14.7289C150.267 14.7289 151.239 14.9856 152.1 15.4989C152.98 16.0122 153.558 16.6813 153.833 17.5062H153.558L153.86 15.0314H158.562C158.507 15.6547 158.452 16.2871 158.397 16.9287C158.36 17.5703 158.342 18.2028 158.342 18.8261V29.0002H153.503L153.448 26.6354H153.778C153.503 27.442 152.925 28.0928 152.045 28.5877C151.184 29.0643 150.23 29.3027 149.185 29.3027ZM150.753 25.673C151.578 25.673 152.247 25.3888 152.76 24.8205C153.273 24.2339 153.53 23.299 153.53 22.0158C153.53 20.7326 153.273 19.8068 152.76 19.2385C152.247 18.6519 151.578 18.3586 150.753 18.3586C149.928 18.3586 149.259 18.6519 148.745 19.2385C148.232 19.8068 147.976 20.7326 147.976 22.0158C147.976 23.299 148.223 24.2339 148.718 24.8205C149.231 25.3888 149.91 25.673 150.753 25.673ZM168.532 29.3027C166.552 29.3027 165.058 28.8352 164.049 27.9003C163.059 26.947 162.565 25.508 162.565 23.5832V18.6336H159.952V15.0314H162.565V11.7317L167.459 10.5768V15.0314H170.869V18.6336H167.459V23.3907C167.459 24.1973 167.642 24.7381 168.009 25.013C168.376 25.2697 168.816 25.398 169.329 25.398C169.641 25.398 169.906 25.3797 170.126 25.343C170.365 25.288 170.612 25.2147 170.869 25.123V28.8902C170.466 29.0552 170.062 29.1652 169.659 29.2202C169.274 29.2752 168.898 29.3027 168.532 29.3027ZM179.618 29.3027C178.06 29.3027 176.712 29.0093 175.576 28.4227C174.439 27.8361 173.559 27.002 172.936 25.9205C172.313 24.8205 172.001 23.519 172.001 22.0158C172.001 20.4943 172.313 19.1927 172.936 18.1111C173.559 17.0296 174.439 16.1955 175.576 15.6089C176.712 15.0222 178.06 14.7289 179.618 14.7289C181.158 14.7289 182.496 15.0222 183.633 15.6089C184.769 16.1955 185.649 17.0387 186.272 18.1386C186.896 19.2202 187.207 20.5126 187.207 22.0158C187.207 23.5007 186.896 24.7931 186.272 25.893C185.649 26.9929 184.769 27.8361 183.633 28.4227C182.496 29.0093 181.158 29.3027 179.618 29.3027ZM179.618 25.673C180.425 25.673 181.066 25.3888 181.543 24.8205C182.019 24.2339 182.258 23.299 182.258 22.0158C182.258 20.7326 182.019 19.8068 181.543 19.2385C181.066 18.6519 180.425 18.3586 179.618 18.3586C178.793 18.3586 178.142 18.6519 177.666 19.2385C177.189 19.8068 176.951 20.7326 176.951 22.0158C176.951 23.299 177.189 24.2339 177.666 24.8205C178.142 25.3888 178.793 25.673 179.618 25.673ZM189.605 29.0002V18.8536C189.605 18.212 189.586 17.5703 189.55 16.9287C189.513 16.2871 189.458 15.6547 189.385 15.0314H194.114L194.637 19.321H193.894C194.078 18.2761 194.371 17.4145 194.774 16.7363C195.178 16.058 195.682 15.5539 196.287 15.2239C196.892 14.8939 197.607 14.7289 198.431 14.7289C198.816 14.7289 199.101 14.7473 199.284 14.7839C199.486 14.8023 199.696 14.8573 199.916 14.9489V19.2385C199.458 19.0369 199.091 18.9086 198.816 18.8536C198.541 18.7986 198.184 18.7711 197.744 18.7711C196.992 18.7711 196.378 18.9086 195.902 19.1835C195.425 19.4402 195.077 19.8435 194.857 20.3934C194.655 20.9434 194.554 21.6492 194.554 22.5108V29.0002H189.605Z" fill="#330000"/>
</svg>
