<svg width="609" height="462" viewBox="0 0 609 462" fill="none" xmlns="http://www.w3.org/2000/svg">
<g clip-path="url(#clip0_191_899)">
<path d="M563.467 419.933C543.513 435.104 519.204 450.472 495.303 457.718C488.414 459.869 481.304 461.242 474.107 461.812C467.379 462.352 460.608 461.827 454.044 460.258C436.795 455.974 420.796 448.473 405.315 439.708C400.258 436.841 395.258 433.841 390.288 430.776C382.175 425.771 374.143 420.589 366.088 415.532C364.882 414.766 363.683 414.015 362.477 413.27H362.47C360.526 412.052 358.577 410.85 356.623 409.665C356.279 409.454 355.936 409.249 355.585 409.038C351.894 406.805 348.14 404.623 344.322 402.492C343.854 402.237 343.386 401.974 342.919 401.719C335.532 397.628 327.94 393.918 320.173 390.605C315.071 388.459 309.904 386.526 304.685 384.876H304.678C302.683 384.249 300.68 383.658 298.67 383.118C292.643 381.467 286.501 380.267 280.295 379.527C271.744 378.494 263.095 378.563 254.56 379.732C253.983 379.812 253.413 379.892 252.835 379.987C229.739 383.68 208.66 396.129 185.461 399.062C184.709 399.157 183.963 399.245 183.21 399.31C182.889 399.34 182.567 399.376 182.245 399.398C175.504 399.974 168.719 399.808 162.014 398.902C143.281 396.435 125.038 388.78 108.615 379.133C70.2208 356.577 39.0845 321.908 20.1543 281.758C16.9036 274.877 14.0174 267.83 11.5078 260.647C4.49113 240.727 0.627021 219.837 0.0546077 198.729C-1.72147 125.494 39.9616 52.0169 105.406 18.8945C170.858 -14.228 256.958 -3.27476 309.743 47.6094C341.764 78.477 360.292 120.305 384.39 157.675C408.487 195.037 442.737 230.728 486.913 236.172C509.417 238.945 532.967 233.581 554.535 240.558C566.478 244.425 576.667 251.825 584.875 261.253C590.393 267.651 595.011 274.77 598.601 282.415C601.232 287.941 603.367 293.69 604.982 299.593C605.282 300.68 605.559 301.767 605.83 302.855C616.574 346.668 599.405 392.597 563.467 419.933Z" fill="#F2F2F2"/>
<path d="M204.041 340.618H135.337C125.044 340.618 116.699 348.949 116.699 359.226V359.226C116.699 369.503 125.044 377.834 135.337 377.834H204.041C214.335 377.834 222.679 369.503 222.679 359.226C222.679 348.949 214.335 340.618 204.041 340.618Z" fill="#3F3D56"/>
<path d="M183.212 368.348V399.31C176.154 399.992 169.041 399.855 162.016 398.902V368.348H183.212Z" fill="#3F3D56"/>
<path d="M254.562 379.732C253.985 379.812 253.415 379.892 252.837 379.987C229.741 383.68 208.662 396.129 185.463 399.062C184.71 399.157 183.965 399.245 183.212 399.31C182.89 399.34 182.569 399.376 182.247 399.398C176.583 393.859 170.918 387.963 165.597 381.855C162.71 378.55 159.918 375.178 157.294 371.763C150.482 362.948 144.708 353.885 140.893 344.982C141.28 340.713 138.62 330.84 137.348 323.28L137.341 323.272C136.8 320.098 136.508 317.34 136.778 315.566C138.328 305.336 146.696 306.511 149.269 296.484C151.59 294.561 154.061 292.826 156.659 291.296C157.09 291.04 157.528 290.785 157.981 290.529L185.902 271.265L196.573 281.714L212.813 297.622L230.413 314.851L215.474 329.92C215.474 329.92 227.958 344.289 242.554 363.444C246.471 368.589 250.542 374.084 254.562 379.732Z" fill="#2F2E41"/>
<path d="M495.305 368.348V457.718C488.415 459.869 481.306 461.242 474.109 461.812V368.348H495.305Z" fill="#3F3D56"/>
<path d="M522.713 361.051H454.009C443.716 361.051 435.371 369.382 435.371 379.659V379.659C435.371 389.936 443.716 398.267 454.009 398.267H522.713C533.007 398.267 541.351 389.936 541.351 379.659C541.351 369.382 533.007 361.051 522.713 361.051Z" fill="#3F3D56"/>
<path d="M355.584 409.038C351.893 406.805 348.139 404.623 344.321 402.492C343.854 402.237 343.386 401.974 342.918 401.718L345.432 400.646L352.215 397.734L352.281 397.705L352.354 397.953L355.584 409.038Z" fill="#FFB6B6"/>
<path d="M366.088 415.532C364.882 414.766 363.683 414.014 362.477 413.27H362.47C360.526 412.051 358.577 410.85 356.623 409.665C356.279 409.454 355.936 409.249 355.585 409.038C351.894 406.805 348.14 404.623 344.322 402.492C343.854 402.237 343.386 401.974 342.919 401.719C335.532 397.628 327.94 393.918 320.173 390.605C315.071 388.459 309.904 386.525 304.685 384.876H304.678L300.578 378.024L282.123 347.164L278.066 340.385C278.066 340.385 264.23 344.471 244.649 348.39C237.523 349.82 229.644 351.221 221.378 352.403C212.541 353.658 203.273 354.658 194.064 355.14C189.671 355.373 185.293 355.49 180.981 355.454C169.835 355.381 159.127 354.337 149.75 351.856C146.621 348.922 137.193 344.931 130.439 341.275H130.432C127.596 339.742 125.243 338.276 124.007 336.969C116.888 329.453 122.97 323.594 116.64 315.391C116.555 312.382 116.709 309.371 117.1 306.386C117.166 305.89 117.232 305.387 117.312 304.876L119.308 271.046L134.13 269.09L156.686 266.113L181.12 262.887L183.809 283.918C183.809 283.918 202.835 282.955 226.94 283.276C265.655 283.801 317.461 287.654 324.478 304.19C325.136 305.744 325.794 307.313 326.451 308.882C328.016 312.633 329.565 316.403 331.1 320.193C336.662 333.912 341.968 347.762 346.814 360.854C349.826 368.997 352.661 376.849 355.271 384.198C357.368 390.108 359.313 395.698 361.089 400.843C362.711 405.542 364.18 409.87 365.489 413.752C365.693 414.357 365.891 414.956 366.088 415.532Z" fill="#2F2E41"/>
<path d="M229.736 210.56L182.918 170.862L213.378 140.084L234.629 174.836L313.401 190.428C315.769 188.648 318.605 187.595 321.563 187.397C324.521 187.199 327.472 187.864 330.058 189.311C332.644 190.759 334.752 192.926 336.125 195.549C337.498 198.172 338.077 201.138 337.791 204.083C337.506 207.029 336.368 209.829 334.516 212.14C332.665 214.451 330.18 216.175 327.364 217.101C324.548 218.026 321.524 218.114 318.659 217.353C315.794 216.592 313.213 215.015 311.23 212.815L229.736 210.56Z" fill="#A0616A"/>
<path d="M141.543 118.688C136.132 136.262 187.662 178.176 187.662 178.176C188.235 173.957 217.45 210.338 219.438 207.043C225.087 197.679 231.303 174.532 237.825 171.574C241.555 169.882 220.159 146.366 220.159 146.366C220.159 146.366 209.244 131.95 194.834 113.679C190.856 108.438 185.615 104.287 179.597 101.612C173.58 98.9378 166.983 97.8267 160.421 98.3825C160.421 98.3825 146.953 101.115 141.543 118.688Z" fill="#3F3D56"/>
<path d="M164.326 79.7837C181.814 79.7837 195.991 65.6293 195.991 48.1688C195.991 30.7084 181.814 16.554 164.326 16.554C146.837 16.554 132.66 30.7084 132.66 48.1688C132.66 65.6293 146.837 79.7837 164.326 79.7837Z" fill="#A0616A"/>
<path d="M180.157 100.679C186.979 104.728 191.059 112.168 193.402 119.739C197.739 133.755 200.35 148.246 201.176 162.893L203.65 206.742L234.294 300.109C207.736 322.545 107.908 305.208 107.908 305.208C107.908 305.208 104.844 304.188 107.908 301.129C110.973 298.069 113.956 300.78 110.891 297.72C107.827 294.661 109.94 298.069 110.961 295.01C111.983 291.95 110.961 293.99 109.94 292.97C108.918 291.95 117.847 282.772 117.847 282.772L109.676 229.178L99.4609 121.076C111.719 105.778 136.37 96.7603 136.37 96.7603L142.74 85.3132L174.588 87.857L180.157 100.679Z" fill="#3F3D56"/>
<path d="M190.427 31.3724C192.888 33.2051 194.711 35.7623 195.64 38.684C195.997 33.9093 196.02 29.1157 195.708 24.3379C195.335 20.9805 192.968 20.2253 190.226 19.3503C187.75 18.5597 184.951 17.6666 184.197 14.4074C174.244 4.73958 156.916 5.22709 145.058 8.59936C138.532 10.4551 134.778 12.8393 134.442 14.236L134.372 14.5235L134.107 14.6558C129.077 17.1666 128.098 25.0955 128.163 31.3047C128.286 43.0033 132.331 56.29 134.61 57.3693C134.731 57.4264 134.762 57.4041 134.814 57.3606C138.246 54.6224 142.433 57.5687 144.273 59.1704C145.358 51.8995 148.852 45.2014 154.198 40.1459C159.543 35.0904 166.431 31.9691 173.761 31.2805C176.155 31.0495 178.53 30.6519 180.869 30.0907C182.055 29.7843 183.274 29.6245 184.5 29.615C186.609 29.583 188.677 30.1963 190.427 31.3724Z" fill="#2F2E41"/>
<path d="M150.527 258.191L140.841 253.239C140.322 252.869 139.953 252.326 139.802 251.708C139.651 251.09 139.728 250.438 140.018 249.872C140.309 249.305 140.794 248.862 141.384 248.623C141.975 248.384 142.632 248.366 143.235 248.57L152.922 253.523C153.441 253.892 153.809 254.436 153.96 255.054C154.111 255.672 154.035 256.324 153.744 256.89C153.454 257.456 152.969 257.899 152.378 258.138C151.788 258.377 151.131 258.396 150.527 258.191Z" fill="#6C63FF"/>
<path d="M117.927 244.922L101.992 185.695L144.573 177.647L142.283 218.3L198.231 275.816C201.193 275.695 204.127 276.438 206.673 277.952C209.22 279.467 211.27 281.689 212.574 284.347C213.878 287.005 214.379 289.984 214.016 292.921C213.654 295.859 212.443 298.627 210.531 300.89C208.62 303.152 206.09 304.81 203.251 305.661C200.412 306.513 197.386 306.522 194.543 305.686C191.699 304.85 189.16 303.207 187.236 300.955C185.311 298.704 184.085 295.943 183.705 293.007L117.927 244.922Z" fill="#A0616A"/>
<path d="M97.635 119.29C83.1815 130.682 101.733 194.405 101.733 194.405C104.605 191.258 107.942 237.769 111.453 236.185C121.431 231.684 139.719 216.163 146.769 217.428C150.801 218.152 146.577 186.663 146.577 186.663C146.577 186.663 145.8 168.608 144.34 145.398C144.049 138.829 142.098 132.44 138.668 126.825C135.239 121.211 130.442 116.555 124.726 113.289C124.726 113.289 112.089 107.898 97.635 119.29Z" fill="#3F3D56"/>
<path d="M598.601 282.415L20.1543 281.758C16.9036 274.877 14.0174 267.83 11.5078 260.647L584.875 261.253C590.393 267.651 595.011 274.77 598.601 282.415Z" fill="#3F3D56"/>
<path d="M414.365 435.527C411.375 436.972 408.359 438.365 405.316 439.708C400.259 436.84 395.259 433.841 390.289 430.776L408.722 422.691L414.365 435.527Z" fill="#FFB6B6"/>
<path d="M548.763 334.97C545.766 338.984 542.675 342.917 539.488 346.77C536.55 350.324 533.534 353.809 530.439 357.227C529.16 358.642 527.867 360.051 526.544 361.445C524.11 364.05 521.622 366.611 519.081 369.129C514.506 370.566 505.238 373.098 495.305 375.463C488.077 377.178 480.497 378.805 474.109 379.841C470.533 380.482 466.916 380.867 463.285 380.994C458.972 381.031 454.594 380.914 450.202 380.68C445.246 380.418 440.283 380.009 435.379 379.484C422.625 378.148 410.273 376.068 399.616 373.93C395.713 373.157 392.044 372.369 388.667 371.603C382.272 370.165 376.922 368.822 373.048 367.801C368.685 366.662 366.199 365.925 366.199 365.925L355.273 384.198L349.601 393.677L345.435 400.646L344.324 402.492C343.856 402.237 343.388 401.974 342.92 401.719C335.534 397.628 327.942 393.918 320.175 390.605C315.073 388.459 309.906 386.526 304.687 384.876H304.68C302.685 384.249 300.682 383.658 298.672 383.118C299.3 381.432 299.936 379.734 300.58 378.024C301.778 374.835 303.001 371.617 304.249 368.37C306.946 361.335 309.738 354.198 312.61 347.098C314.964 341.268 317.361 335.459 319.788 329.731C320.906 327.089 323.179 324.768 326.358 322.732C327.878 321.776 329.463 320.927 331.102 320.193C340.202 316.055 353.606 313.363 368.378 311.633C369.598 311.495 370.826 311.356 372.061 311.225C384.289 309.94 397.263 309.276 409.396 308.97C415.469 308.816 421.331 308.758 426.784 308.751C428.545 308.751 430.258 308.756 431.922 308.765H431.929C436.424 308.787 440.561 308.853 444.201 308.926C444.91 308.941 445.597 308.962 446.269 308.977H446.277C446.73 308.984 447.176 308.999 447.614 309.006C455.574 309.211 460.456 309.459 460.456 309.459L462.349 294.631L462.737 291.639L463.102 288.793V288.785L463.146 288.428L463.446 288.421L468.708 288.318L512.942 287.457L537.105 286.983L533.275 303.373L526.953 330.417C527.596 334.693 548.982 331.343 548.763 334.97Z" fill="#2F2E41"/>
<path d="M419.815 432.827C418.009 433.746 416.189 434.651 414.362 435.527C411.373 436.972 408.357 438.366 405.314 439.708C400.256 436.84 395.257 433.841 390.286 430.776C382.174 425.77 374.141 420.589 366.086 415.532C364.88 414.766 363.682 414.014 362.476 413.27H362.469C359.15 408.352 355.766 403.229 352.353 397.953C352.302 397.88 352.258 397.807 352.214 397.734C351.337 396.391 350.465 395.039 349.597 393.677C344.138 385.139 338.649 376.236 333.32 367.144L346.813 360.853L371.897 349.163L376.224 347.149L388.664 371.602L399.759 393.414L402.229 398.267L419.815 432.827Z" fill="#2F2E41"/>
<path d="M423.599 315.426L487.553 253.849L505.279 203.738L479.133 192.387C465.703 205.231 451.186 245.237 451.186 245.237L407.176 301.138C406.833 301.255 406.491 301.38 406.153 301.529C404.171 302.401 402.448 303.77 401.15 305.502C399.853 307.233 399.024 309.27 398.745 311.415C398.467 313.56 398.747 315.741 399.558 317.746C400.37 319.751 401.687 321.514 403.38 322.863C405.073 324.212 407.087 325.102 409.225 325.447C411.364 325.792 413.556 325.58 415.588 324.833C417.621 324.085 419.426 322.826 420.83 321.179C422.233 319.531 423.187 317.549 423.599 315.426Z" fill="#FFB8B8"/>
<path d="M471.773 197.982L504.938 208.494L505.063 208.473C517.407 206.409 527.65 186.28 534.068 169.758C536.18 164.308 536.141 158.261 533.958 152.839C531.775 147.418 527.612 143.025 522.31 140.551C518.387 138.752 514.037 138.084 509.754 138.624C505.47 139.164 501.423 140.889 498.07 143.604L481.04 157.498L471.773 197.982Z" fill="#6C63FF"/>
<path d="M548.629 335.709L548.823 335.452C559.17 321.75 545.018 287.82 542.878 282.899L552.499 280.054L550.822 261.764L550.015 253.608L557.495 246.516L557.521 246.334L562.665 209.78L569.397 185.587C571.934 176.441 571.988 166.785 569.552 157.612C567.117 148.438 562.28 140.077 555.538 133.386L541.777 119.745L525.291 93.9811L497.649 93.2686L487.709 110.898C478.465 112.782 470.176 117.843 464.286 125.201C458.396 132.559 455.277 141.746 455.474 151.164L456.41 198.097L446.492 256.247L446.213 266.81L436.478 277.066L438.278 287.435L430.996 290.331L427.433 305.066C426.072 306.766 417.086 318.106 417.004 321.267C416.992 321.742 417.331 322.21 418.071 322.738C423.887 326.893 456.397 335.896 471.029 330.483C486.614 324.723 547.696 335.542 548.311 335.652L548.629 335.709Z" fill="#6C63FF"/>
<path d="M509.054 85.3705C529.279 85.3705 545.675 69.0011 545.675 48.8084C545.675 28.6156 529.279 12.2462 509.054 12.2462C488.829 12.2462 472.434 28.6156 472.434 48.8084C472.434 69.0011 488.829 85.3705 509.054 85.3705Z" fill="#FFB8B8"/>
<path d="M504.589 85.8597C510.26 85.948 515.929 85.5525 521.532 84.6776C527.086 83.5499 539.512 74.459 542.976 68.9885C545.549 64.924 547.195 58.5769 548.122 53.9685C549.371 47.87 549.324 41.5775 547.982 35.4986C546.641 29.4197 544.036 23.6898 540.335 18.68C538.913 16.5846 536.95 14.9118 534.654 13.8387C534.45 13.7593 534.241 13.6889 534.029 13.6287C530.684 12.7497 527.677 10.8924 525.396 8.29517C524.954 7.76984 524.474 7.277 523.961 6.82047C521.383 4.64835 518.327 3.11619 515.042 2.34921C509.74 0.932507 502.067 2.33878 492.237 6.53301C487.298 8.64027 481.897 7.87765 477.741 6.97774C477.508 6.9328 477.268 6.94956 477.043 7.02638C476.818 7.10319 476.618 7.23738 476.461 7.41559C474.693 9.07259 472.363 10.0001 469.938 10.0117C468.453 10.0768 466.895 12.13 465.011 14.8073C464.584 15.4151 464.085 16.1244 463.726 16.5558L463.677 15.727L462.837 16.6516C461.517 18.1049 460.586 19.8681 460.132 21.7772C459.678 23.6863 459.715 25.6791 460.239 27.5701C460.764 29.461 461.76 31.1886 463.133 32.592C464.507 33.9953 466.214 35.0288 468.096 35.5962C469.589 35.9931 471.12 36.2366 472.664 36.323C473.599 36.407 474.566 36.4939 475.492 36.6544C478.467 37.2626 481.233 38.6304 483.52 40.6243C485.807 42.6183 487.537 45.1702 488.541 48.031C488.779 48.6923 489.165 49.2902 489.671 49.7787C490.176 50.2672 490.788 50.6331 491.458 50.8482C492.127 51.0633 492.838 51.1218 493.534 51.0193C494.23 50.9168 494.893 50.656 495.472 50.2569C496.438 49.5064 497.571 49 498.774 48.7812C499.978 48.5623 501.217 48.6374 502.386 49C503.395 49.5606 504.181 50.4508 504.612 51.5212C505.135 52.7139 506.002 53.7239 507.103 54.4224C510.867 56.3599 511.126 64.943 509.774 72.0981C508.471 78.9949 505.895 83.9842 503.51 84.2308C501.674 84.4205 501.464 84.5507 501.331 84.8749L501.213 85.1651L501.419 85.4365C502.433 85.8036 503.514 85.9479 504.589 85.8597Z" fill="#2F2E41"/>
<path d="M480.867 186.928L466.747 158.822C446.252 160.22 405.574 183.879 405.574 183.879L328.612 200.171C326.332 199.296 323.861 199.036 321.449 199.417C319.036 199.798 316.767 200.807 314.869 202.343C312.971 203.878 311.512 205.886 310.639 208.163C309.765 210.44 309.508 212.907 309.892 215.315C310.277 217.724 311.291 219.988 312.831 221.881C314.371 223.774 316.383 225.228 318.665 226.098C320.947 226.967 323.418 227.221 325.83 226.834C328.242 226.447 330.509 225.433 332.403 223.893L430.304 216.886L480.867 186.928Z" fill="#FFB8B8"/>
<path d="M475.171 191.543L512.048 164.182L518.543 140.811C519.802 136.218 519.749 131.365 518.39 126.801C517.031 122.237 514.42 118.143 510.854 114.982C505.989 110.73 499.69 108.481 493.228 108.689C486.766 108.897 480.625 111.548 476.045 116.104C462.168 129.933 446.34 149.226 449.74 162.605L449.775 162.74L475.171 191.543Z" fill="#6C63FF"/>
<path d="M429.523 264.726H330.852V277.861H429.523V264.726Z" fill="white"/>
<path d="M177.363 264.726H78.6914V277.861H177.363V264.726Z" fill="white"/>
<path d="M188.887 201.559V264.1C188.887 264.897 189.205 265.661 189.769 266.225C190.334 266.788 191.099 267.105 191.897 267.106H284.725C285.523 267.105 286.288 266.788 286.853 266.225C287.417 265.661 287.735 264.897 287.735 264.1V201.559C287.733 200.763 287.415 200 286.851 199.437C286.287 198.874 285.522 198.558 284.725 198.557H191.897C191.1 198.558 190.335 198.874 189.771 199.437C189.207 200 188.889 200.763 188.887 201.559Z" fill="#3F3D56"/>
<path d="M191.062 202.337V263.329C191.063 263.754 191.233 264.163 191.535 264.464C191.836 264.765 192.245 264.934 192.672 264.935H283.95C284.376 264.934 284.785 264.765 285.087 264.464C285.389 264.163 285.558 263.754 285.559 263.329V202.337C285.559 201.911 285.39 201.502 285.088 201.2C284.786 200.899 284.377 200.729 283.95 200.728H192.672C192.244 200.729 191.835 200.899 191.534 201.2C191.232 201.502 191.063 201.911 191.062 202.337Z" fill="#6C63FF"/>
<path d="M186.943 276.297C187.113 276.51 187.329 276.682 187.575 276.799C187.821 276.917 188.09 276.977 188.363 276.976H287.759C288.031 276.975 288.299 276.915 288.545 276.798C288.79 276.681 289.006 276.511 289.177 276.3C289.349 276.089 289.471 275.843 289.535 275.579C289.599 275.315 289.603 275.041 289.547 274.775L288.004 267.458C287.94 267.16 287.802 266.882 287.604 266.65C287.405 266.418 287.151 266.24 286.865 266.131C286.659 266.05 286.438 266.009 286.216 266.009H189.9C189.678 266.009 189.457 266.05 189.251 266.131C188.965 266.24 188.711 266.418 188.512 266.65C188.314 266.882 188.176 267.16 188.112 267.458L186.569 274.775C186.514 275.041 186.519 275.315 186.584 275.578C186.648 275.842 186.771 276.087 186.943 276.297Z" fill="#2F2E41"/>
<path d="M282.807 269.161H285.155C285.352 269.161 285.512 269.001 285.512 268.805V267.683C285.512 267.487 285.352 267.327 285.155 267.327H282.807C282.61 267.327 282.45 267.487 282.45 267.683V268.805C282.45 269.001 282.61 269.161 282.807 269.161Z" fill="#3F3D56"/>
<path d="M276.682 269.161H279.03C279.227 269.161 279.387 269.001 279.387 268.805V267.683C279.387 267.487 279.227 267.327 279.03 267.327H276.682C276.485 267.327 276.325 267.487 276.325 267.683V268.805C276.325 269.001 276.485 269.161 276.682 269.161Z" fill="#3F3D56"/>
<path d="M270.561 269.161H272.909C273.106 269.161 273.266 269.001 273.266 268.805V267.683C273.266 267.487 273.106 267.327 272.909 267.327H270.561C270.364 267.327 270.204 267.487 270.204 267.683V268.805C270.204 269.001 270.364 269.161 270.561 269.161Z" fill="#3F3D56"/>
<path d="M264.44 269.161H266.788C266.985 269.161 267.145 269.001 267.145 268.805V267.683C267.145 267.487 266.985 267.327 266.788 267.327H264.44C264.243 267.327 264.083 267.487 264.083 267.683V268.805C264.083 269.001 264.243 269.161 264.44 269.161Z" fill="#3F3D56"/>
<path d="M258.315 269.161H260.663C260.86 269.161 261.02 269.001 261.02 268.805V267.683C261.02 267.487 260.86 267.327 260.663 267.327H258.315C258.118 267.327 257.958 267.487 257.958 267.683V268.805C257.958 269.001 258.118 269.161 258.315 269.161Z" fill="#3F3D56"/>
<path d="M252.194 269.161H254.542C254.739 269.161 254.898 269.001 254.898 268.805V267.683C254.898 267.487 254.739 267.327 254.542 267.327H252.194C251.997 267.327 251.837 267.487 251.837 267.683V268.805C251.837 269.001 251.997 269.161 252.194 269.161Z" fill="#3F3D56"/>
<path d="M246.069 269.161H248.417C248.614 269.161 248.773 269.001 248.773 268.805V267.683C248.773 267.487 248.614 267.327 248.417 267.327H246.069C245.872 267.327 245.712 267.487 245.712 267.683V268.805C245.712 269.001 245.872 269.161 246.069 269.161Z" fill="#3F3D56"/>
<path d="M239.948 269.161H242.296C242.493 269.161 242.652 269.001 242.652 268.805V267.683C242.652 267.487 242.493 267.327 242.296 267.327H239.948C239.751 267.327 239.591 267.487 239.591 267.683V268.805C239.591 269.001 239.751 269.161 239.948 269.161Z" fill="#3F3D56"/>
<path d="M233.827 269.161H236.174C236.371 269.161 236.531 269.001 236.531 268.805V267.683C236.531 267.487 236.371 267.327 236.174 267.327H233.827C233.63 267.327 233.47 267.487 233.47 267.683V268.805C233.47 269.001 233.63 269.161 233.827 269.161Z" fill="#3F3D56"/>
<path d="M227.702 269.161H230.049C230.246 269.161 230.406 269.001 230.406 268.805V267.683C230.406 267.487 230.246 267.327 230.049 267.327H227.702C227.505 267.327 227.345 267.487 227.345 267.683V268.805C227.345 269.001 227.505 269.161 227.702 269.161Z" fill="#3F3D56"/>
<path d="M221.581 269.161H223.928C224.125 269.161 224.285 269.001 224.285 268.805V267.683C224.285 267.487 224.125 267.327 223.928 267.327H221.581C221.384 267.327 221.224 267.487 221.224 267.683V268.805C221.224 269.001 221.384 269.161 221.581 269.161Z" fill="#3F3D56"/>
<path d="M215.456 269.161H217.803C218 269.161 218.16 269.001 218.16 268.805V267.683C218.16 267.487 218 267.327 217.803 267.327H215.456C215.259 267.327 215.099 267.487 215.099 267.683V268.805C215.099 269.001 215.259 269.161 215.456 269.161Z" fill="#3F3D56"/>
<path d="M209.335 269.161H211.682C211.879 269.161 212.039 269.001 212.039 268.805V267.683C212.039 267.487 211.879 267.327 211.682 267.327H209.335C209.137 267.327 208.978 267.487 208.978 267.683V268.805C208.978 269.001 209.137 269.161 209.335 269.161Z" fill="#3F3D56"/>
<path d="M203.21 269.161H205.557C205.754 269.161 205.914 269.001 205.914 268.805V267.683C205.914 267.487 205.754 267.327 205.557 267.327H203.21C203.012 267.327 202.853 267.487 202.853 267.683V268.805C202.853 269.001 203.012 269.161 203.21 269.161Z" fill="#3F3D56"/>
<path d="M197.088 269.161H199.436C199.633 269.161 199.793 269.001 199.793 268.805V267.683C199.793 267.487 199.633 267.327 199.436 267.327H197.088C196.891 267.327 196.732 267.487 196.732 267.683V268.805C196.732 269.001 196.891 269.161 197.088 269.161Z" fill="#3F3D56"/>
<path d="M190.967 269.161H193.315C193.512 269.161 193.672 269.001 193.672 268.805V267.683C193.672 267.487 193.512 267.327 193.315 267.327H190.967C190.77 267.327 190.611 267.487 190.611 267.683V268.805C190.611 269.001 190.77 269.161 190.967 269.161Z" fill="#3F3D56"/>
<path d="M282.877 272.217H285.225C285.422 272.217 285.582 272.058 285.582 271.861V270.74C285.582 270.543 285.422 270.383 285.225 270.383H282.877C282.68 270.383 282.521 270.543 282.521 270.74V271.861C282.521 272.058 282.68 272.217 282.877 272.217Z" fill="#3F3D56"/>
<path d="M276.756 272.217H279.104C279.301 272.217 279.461 272.058 279.461 271.861V270.74C279.461 270.543 279.301 270.383 279.104 270.383H276.756C276.559 270.383 276.4 270.543 276.4 270.74V271.861C276.4 272.058 276.559 272.217 276.756 272.217Z" fill="#3F3D56"/>
<path d="M270.635 272.217H272.983C273.18 272.217 273.34 272.058 273.34 271.861V270.74C273.34 270.543 273.18 270.383 272.983 270.383H270.635C270.438 270.383 270.278 270.543 270.278 270.74V271.861C270.278 272.058 270.438 272.217 270.635 272.217Z" fill="#3F3D56"/>
<path d="M264.51 272.217H266.858C267.055 272.217 267.215 272.058 267.215 271.861V270.74C267.215 270.543 267.055 270.383 266.858 270.383H264.51C264.313 270.383 264.153 270.543 264.153 270.74V271.861C264.153 272.058 264.313 272.217 264.51 272.217Z" fill="#3F3D56"/>
<path d="M258.389 272.217H260.737C260.934 272.217 261.094 272.058 261.094 271.861V270.74C261.094 270.543 260.934 270.383 260.737 270.383H258.389C258.192 270.383 258.032 270.543 258.032 270.74V271.861C258.032 272.058 258.192 272.217 258.389 272.217Z" fill="#3F3D56"/>
<path d="M252.264 272.217H254.612C254.809 272.217 254.969 272.058 254.969 271.861V270.74C254.969 270.543 254.809 270.383 254.612 270.383H252.264C252.067 270.383 251.907 270.543 251.907 270.74V271.861C251.907 272.058 252.067 272.217 252.264 272.217Z" fill="#3F3D56"/>
<path d="M246.143 272.217H248.491C248.688 272.217 248.848 272.058 248.848 271.861V270.74C248.848 270.543 248.688 270.383 248.491 270.383H246.143C245.946 270.383 245.786 270.543 245.786 270.74V271.861C245.786 272.058 245.946 272.217 246.143 272.217Z" fill="#3F3D56"/>
<path d="M240.022 272.217H242.37C242.567 272.217 242.727 272.058 242.727 271.861V270.74C242.727 270.543 242.567 270.383 242.37 270.383H240.022C239.825 270.383 239.665 270.543 239.665 270.74V271.861C239.665 272.058 239.825 272.217 240.022 272.217Z" fill="#3F3D56"/>
<path d="M233.897 272.217H236.245C236.442 272.217 236.602 272.058 236.602 271.861V270.74C236.602 270.543 236.442 270.383 236.245 270.383H233.897C233.7 270.383 233.54 270.543 233.54 270.74V271.861C233.54 272.058 233.7 272.217 233.897 272.217Z" fill="#3F3D56"/>
<path d="M227.776 272.217H230.124C230.321 272.217 230.48 272.058 230.48 271.861V270.74C230.48 270.543 230.321 270.383 230.124 270.383H227.776C227.579 270.383 227.419 270.543 227.419 270.74V271.861C227.419 272.058 227.579 272.217 227.776 272.217Z" fill="#3F3D56"/>
<path d="M221.651 272.217H223.999C224.196 272.217 224.355 272.058 224.355 271.861V270.74C224.355 270.543 224.196 270.383 223.999 270.383H221.651C221.454 270.383 221.294 270.543 221.294 270.74V271.861C221.294 272.058 221.454 272.217 221.651 272.217Z" fill="#3F3D56"/>
<path d="M215.53 272.217H217.878C218.075 272.217 218.234 272.058 218.234 271.861V270.74C218.234 270.543 218.075 270.383 217.878 270.383H215.53C215.333 270.383 215.173 270.543 215.173 270.74V271.861C215.173 272.058 215.333 272.217 215.53 272.217Z" fill="#3F3D56"/>
<path d="M209.405 272.217H211.753C211.95 272.217 212.109 272.058 212.109 271.861V270.74C212.109 270.543 211.95 270.383 211.753 270.383H209.405C209.208 270.383 209.048 270.543 209.048 270.74V271.861C209.048 272.058 209.208 272.217 209.405 272.217Z" fill="#3F3D56"/>
<path d="M203.284 272.217H205.631C205.829 272.217 205.988 272.058 205.988 271.861V270.74C205.988 270.543 205.829 270.383 205.631 270.383H203.284C203.087 270.383 202.927 270.543 202.927 270.74V271.861C202.927 272.058 203.087 272.217 203.284 272.217Z" fill="#3F3D56"/>
<path d="M197.163 272.217H199.51C199.707 272.217 199.867 272.058 199.867 271.861V270.74C199.867 270.543 199.707 270.383 199.51 270.383H197.163C196.966 270.383 196.806 270.543 196.806 270.74V271.861C196.806 272.058 196.966 272.217 197.163 272.217Z" fill="#3F3D56"/>
<path d="M191.038 272.217H193.385C193.582 272.217 193.742 272.058 193.742 271.861V270.74C193.742 270.543 193.582 270.383 193.385 270.383H191.038C190.841 270.383 190.681 270.543 190.681 270.74V271.861C190.681 272.058 190.841 272.217 191.038 272.217Z" fill="#3F3D56"/>
<path d="M232.061 275.885H255.838C256.036 275.885 256.195 275.726 256.195 275.529V274.407C256.195 274.211 256.036 274.051 255.838 274.051H232.061C231.864 274.051 231.704 274.211 231.704 274.407V275.529C231.704 275.726 231.864 275.885 232.061 275.885Z" fill="#3F3D56"/>
</g>
<defs>
<clipPath id="clip0_191_899">
<rect width="609" height="462" fill="white"/>
</clipPath>
</defs>
</svg>
