<svg width="147" height="37" viewBox="0 0 147 37" fill="none" xmlns="http://www.w3.org/2000/svg">
<path d="M24.6047 18.8739C24.6047 16.8775 22.9355 15.2589 20.8763 15.2589C18.8173 15.2589 17.1479 16.8775 17.1479 18.8739C17.1479 20.8705 18.8173 22.489 20.8763 22.489C22.9355 22.489 24.6047 20.8705 24.6047 18.8739Z" fill="#53C1DE"/>
<path fill-rule="evenodd" clip-rule="evenodd" d="M32.9854 12.1621C33.7727 9.05999 34.7624 3.30741 31.2735 1.3571C27.8009 -0.584709 23.282 3.13615 20.8958 5.36959C18.5166 3.1584 13.8708 -0.546547 10.3848 1.40996C6.91361 3.35827 7.98406 9.01548 8.78886 12.1371C5.55079 13.0288 0 14.9494 0 18.8735C0 22.7864 5.54502 24.876 8.76392 25.7669C7.95614 28.9058 6.93929 34.4822 10.415 36.4262C13.9139 38.3823 18.5453 34.7655 20.9536 32.5077C23.3551 34.7542 27.8306 38.3947 31.3039 36.4452C34.788 34.4897 33.8806 28.8142 33.0757 25.6745C36.1961 24.7817 41.753 22.7376 41.753 18.8735C41.753 14.9871 36.1724 13.0509 32.9854 12.1621ZM32.5899 24.0106C32.0614 22.3887 31.3481 20.6639 30.4756 18.8821C31.3085 17.1424 31.9941 15.4399 32.5078 13.8283C34.8441 14.4851 39.9694 15.9861 39.9694 18.8735C39.9694 21.788 35.0511 23.3032 32.5899 24.0106ZM30.4101 34.9485C27.8186 36.4029 23.9691 32.9216 22.1956 31.2672C23.3722 30.0195 24.548 28.569 25.6955 26.9583C27.7141 26.7847 29.621 26.5008 31.3504 26.1132C31.9168 28.334 33.013 33.4876 30.4101 34.9485ZM11.3062 34.9278C8.71445 33.4788 9.89905 28.5027 10.4933 26.1906C12.2035 26.5574 14.0966 26.8213 16.12 26.9804C17.275 28.5564 18.4849 30.0051 19.7041 31.2739C18.1978 32.6866 13.91 36.3834 11.3062 34.9278ZM1.78353 18.8735C1.78353 15.9481 6.8782 14.458 9.26783 13.8029C9.79039 15.4506 10.4758 17.1735 11.3029 18.9157C10.465 20.6838 9.76988 22.4339 9.24251 24.1011C6.96397 23.4687 1.78353 21.8007 1.78353 18.8735ZM11.2785 2.90666C13.8808 1.44617 17.9186 5.00306 19.646 6.60401C18.4331 7.86691 17.2344 9.30469 16.0892 10.8717C14.1256 11.0482 12.2458 11.3315 10.5177 11.7112C9.86936 9.1935 8.67894 4.36558 11.2785 2.90666ZM26.9714 12.7514C28.3036 12.9144 29.58 13.1312 30.7785 13.3965C30.4187 14.5146 29.9703 15.6839 29.4421 16.8824C28.6765 15.474 27.8547 14.0938 26.9714 12.7514ZM20.8964 7.83986C21.7191 8.70396 22.543 9.66892 23.3536 10.7158C21.7095 10.6404 20.0627 10.6401 18.4186 10.7147C19.2299 9.67752 20.0609 8.714 20.8964 7.83986ZM12.3262 16.8812C11.8068 15.6868 11.3623 14.5124 10.9994 13.3783C12.1907 13.1198 13.4612 12.9085 14.7847 12.7482C13.899 14.0876 13.0786 15.4673 12.3262 16.8812ZM14.8227 25.1222C13.4555 24.9743 12.1658 24.7738 10.9749 24.5224C11.3435 23.3683 11.7977 22.1686 12.3282 20.9485C13.091 22.3771 13.9239 23.7701 14.8227 25.1222ZM20.9458 30.0293C20.1004 29.1449 19.2572 28.1666 18.4337 27.1144C20.0871 27.1773 21.7437 27.1775 23.397 27.1059C22.5839 28.1773 21.7629 29.157 20.9458 30.0293ZM29.4591 20.8864C30.0172 22.1198 30.4876 23.313 30.8613 24.4475C29.6506 24.7154 28.3436 24.9312 26.9664 25.0914C27.8562 23.7235 28.6911 22.3219 29.4591 20.8864ZM24.7001 25.301C22.171 25.4762 19.6261 25.4742 17.0962 25.3153C15.6586 23.2793 14.3789 21.138 13.2742 18.9151C14.3736 16.6968 15.644 14.5597 17.0747 12.5269C19.6065 12.3414 22.1539 12.3408 24.6856 12.528C26.1041 14.5607 27.3726 16.6922 28.4974 18.8905C27.3859 21.1077 26.1088 23.2491 24.7001 25.301ZM30.3827 2.85525C32.9857 4.31095 31.827 9.48097 31.2584 11.7291C29.5262 11.3415 27.6451 11.0532 25.6757 10.8739C24.5283 9.28999 23.3396 7.84971 22.1463 6.60312C23.8959 4.96769 27.8048 1.41378 30.3827 2.85525Z" fill="#53C1DE"/>
<path d="M70.1509 29V9.61419H79.3076C81.544 9.61419 83.2672 10.1458 84.4771 11.2091C85.7053 12.2723 86.3195 13.748 86.3195 15.6362C86.3195 16.9011 86.0445 17.9826 85.4945 18.8809C84.9446 19.7608 84.1471 20.4482 83.1022 20.9432C82.0573 21.4198 80.8108 21.6581 79.3626 21.6581L79.61 20.9707H80.9849C81.7915 20.9707 82.5065 21.1907 83.1297 21.6306C83.753 22.0706 84.2663 22.6847 84.6696 23.473L87.6118 29H82.0573L78.8951 22.813C78.6935 22.4097 78.391 22.1348 77.9877 21.9881C77.6027 21.8415 77.1628 21.7681 76.6678 21.7681H75.2379V29H70.1509ZM75.2379 18.1659H78.4276C79.4176 18.1659 80.1692 17.9735 80.6824 17.5885C81.1957 17.1852 81.4524 16.5894 81.4524 15.8012C81.4524 15.0312 81.1957 14.4538 80.6824 14.0688C80.1692 13.6838 79.4176 13.4914 78.4276 13.4914H75.2379V18.1659ZM96.4721 29.3025C93.9423 29.3025 91.9716 28.6517 90.5601 27.3501C89.1669 26.0486 88.4703 24.2612 88.4703 21.9881C88.4703 20.5766 88.7636 19.3208 89.3502 18.2209C89.9368 17.121 90.7617 16.2686 91.825 15.6637C92.8882 15.0404 94.1348 14.7287 95.5647 14.7287C96.9762 14.7287 98.1494 15.0404 99.0844 15.6637C100.038 16.2686 100.753 17.1119 101.229 18.1934C101.706 19.2567 101.944 20.4941 101.944 21.9056V22.9505H92.5674V20.6407H98.3419L97.8745 21.0257C97.8745 19.9808 97.6728 19.2109 97.2695 18.7159C96.8845 18.2026 96.3346 17.946 95.6197 17.946C94.7947 17.946 94.1623 18.2576 93.7223 18.8809C93.3007 19.4858 93.0899 20.4024 93.0899 21.6306V22.1256C93.0899 23.3538 93.3924 24.2521 93.9973 24.8204C94.6022 25.3886 95.473 25.6728 96.6096 25.6728C97.3428 25.6728 98.0303 25.5903 98.6719 25.4253C99.3318 25.2603 99.9551 24.9945 100.542 24.6279L101.807 27.8176C101.11 28.2942 100.303 28.6609 99.3868 28.9175C98.4702 29.1742 97.4987 29.3025 96.4721 29.3025ZM109.774 29.3025C108.564 29.3025 107.501 29.0183 106.585 28.45C105.668 27.8634 104.944 27.0202 104.412 25.9203C103.899 24.8204 103.642 23.5188 103.642 22.0156C103.642 20.4941 103.899 19.1925 104.412 18.111C104.944 17.011 105.668 16.177 106.585 15.6087C107.501 15.0221 108.564 14.7287 109.774 14.7287C110.856 14.7287 111.827 14.9854 112.689 15.4987C113.569 16.012 114.146 16.6811 114.421 17.506H114.146L114.449 15.0312H119.151C119.096 15.6545 119.041 16.2869 118.986 16.9286C118.949 17.5702 118.931 18.2026 118.931 18.8259V29H114.091L114.036 26.6352H114.366C114.091 27.4418 113.514 28.0926 112.634 28.5875C111.772 29.0642 110.819 29.3025 109.774 29.3025ZM111.342 25.6728C112.167 25.6728 112.836 25.3886 113.349 24.8204C113.862 24.2337 114.119 23.2988 114.119 22.0156C114.119 20.7324 113.862 19.8066 113.349 19.2384C112.836 18.6517 112.167 18.3584 111.342 18.3584C110.517 18.3584 109.848 18.6517 109.334 19.2384C108.821 19.8066 108.564 20.7324 108.564 22.0156C108.564 23.2988 108.812 24.2337 109.307 24.8204C109.82 25.3886 110.498 25.6728 111.342 25.6728ZM129.038 29.3025C127.498 29.3025 126.151 29.0092 124.996 28.4226C123.841 27.8359 122.943 27.0018 122.301 25.9203C121.659 24.8204 121.338 23.5096 121.338 21.9881C121.338 20.4666 121.659 19.165 122.301 18.0835C122.943 17.0019 123.841 16.177 124.996 15.6087C126.151 15.0221 127.498 14.7287 129.038 14.7287C129.991 14.7287 130.926 14.8571 131.843 15.1137C132.759 15.3704 133.502 15.737 134.07 16.2136L132.695 19.5408C132.255 19.1742 131.751 18.8992 131.183 18.7159C130.633 18.5143 130.092 18.4134 129.56 18.4134C128.552 18.4134 127.764 18.7159 127.195 19.3208C126.646 19.9258 126.371 20.8149 126.371 21.9881C126.371 23.1613 126.646 24.0596 127.195 24.6829C127.764 25.2878 128.552 25.5903 129.56 25.5903C130.074 25.5903 130.614 25.4986 131.183 25.3153C131.751 25.1137 132.255 24.8387 132.695 24.4904L134.07 27.8176C133.483 28.2759 132.732 28.6425 131.815 28.9175C130.917 29.1742 129.991 29.3025 129.038 29.3025ZM143.352 29.3025C141.373 29.3025 139.879 28.835 138.87 27.9001C137.88 26.9468 137.385 25.5078 137.385 23.583V18.6334H134.773V15.0312H137.385V11.7315L142.28 10.5766V15.0312H145.69V18.6334H142.28V23.3905C142.28 24.1971 142.463 24.7379 142.83 25.0128C143.197 25.2695 143.637 25.3978 144.15 25.3978C144.462 25.3978 144.727 25.3795 144.947 25.3428C145.186 25.2878 145.433 25.2145 145.69 25.1228V28.89C145.286 29.055 144.883 29.165 144.48 29.22C144.095 29.275 143.719 29.3025 143.352 29.3025Z" fill="#53C1DE"/>
</svg>
