<svg width="204" height="37" viewBox="0 0 204 37" fill="none" xmlns="http://www.w3.org/2000/svg">
<path d="M32.7565 0.698486H3.54507C1.58718 0.698486 0 2.28567 0 4.24356V33.4549C0 35.4128 1.58718 37 3.54507 37H32.7565C34.7143 37 36.3015 35.4128 36.3015 33.4549V4.24356C36.3015 2.28567 34.7143 0.698486 32.7565 0.698486Z" fill="#3178C6"/>
<path fill-rule="evenodd" clip-rule="evenodd" d="M22.4711 29.5855V33.1349C23.0481 33.4307 23.7305 33.6525 24.5184 33.8004C25.3062 33.9483 26.1365 34.0222 27.0095 34.0222C27.8602 34.0222 28.6684 33.9409 29.434 33.7782C30.1997 33.6156 30.8711 33.3475 31.4481 32.974C32.0251 32.6007 32.4819 32.1126 32.8184 31.5099C33.155 30.9073 33.3233 30.1623 33.3233 29.275C33.3233 28.6316 33.2272 28.0678 33.0348 27.5835C32.8425 27.0992 32.5651 26.6684 32.2026 26.2913C31.8401 25.9142 31.4055 25.5758 30.8988 25.2763C30.392 24.9769 29.8206 24.694 29.1844 24.4279C28.7183 24.2356 28.3004 24.0489 27.9305 23.8677C27.5606 23.6865 27.2462 23.5017 26.9873 23.3132C26.7284 23.1246 26.5286 22.9249 26.3881 22.7142C26.2476 22.5034 26.1772 22.265 26.1772 21.9987C26.1772 21.7547 26.2401 21.5347 26.3659 21.3388C26.4917 21.1428 26.6692 20.9746 26.8985 20.8341C27.1279 20.6936 27.4089 20.5845 27.7418 20.5069C28.0748 20.4292 28.4446 20.3905 28.8515 20.3905C29.1474 20.3905 29.4599 20.4127 29.7891 20.457C30.1183 20.5013 30.4493 20.5698 30.7823 20.6622C31.1152 20.7546 31.4388 20.8711 31.7532 21.0116C32.0676 21.1521 32.3579 21.3147 32.6242 21.4996V18.1832C32.0843 17.9761 31.4943 17.8227 30.8544 17.7229C30.2145 17.623 29.4803 17.5731 28.6518 17.5731C27.8084 17.5731 27.0095 17.6637 26.255 17.8449C25.5004 18.026 24.8365 18.3089 24.2631 18.6934C23.6898 19.0779 23.2367 19.5678 22.9039 20.1631C22.571 20.7583 22.4045 21.47 22.4045 22.2982C22.4045 23.3556 22.7097 24.2578 23.32 25.0047C23.9302 25.7515 24.8568 26.3837 26.0996 26.9013C26.5878 27.101 27.0428 27.2969 27.4645 27.4892C27.8861 27.6815 28.2505 27.8811 28.5574 28.0882C28.8644 28.2952 29.1067 28.5207 29.2843 28.7648C29.4618 29.0087 29.5506 29.286 29.5506 29.5967C29.5506 29.8259 29.4951 30.0384 29.3841 30.2344C29.2732 30.4304 29.1048 30.6004 28.8792 30.7446C28.6536 30.8888 28.3725 31.0016 28.0359 31.0829C27.6993 31.1643 27.3054 31.2049 26.8541 31.2049C26.0848 31.2049 25.3229 31.07 24.5683 30.8001C23.8137 30.5302 23.1147 30.1254 22.4711 29.5855ZM16.5041 20.8404H21.0574V17.9276H8.36603V20.8404H12.8971V33.8095H16.5041V20.8404Z" fill="white"/>
<path d="M69.1266 29V13.7113H63.2421V9.61419H80.0981V13.7113H74.2136V29H69.1266ZM80.108 35.242L78.9531 31.4473C79.833 31.2823 80.5663 31.099 81.1529 30.8973C81.7578 30.714 82.2528 30.4574 82.6378 30.1274C83.0227 29.7974 83.3252 29.3666 83.5452 28.835L84.2326 27.2402L84.1226 29.0825L78.0182 15.0312H83.1877L86.7624 24.2979H85.855L89.5397 15.0312H94.3792L88.1098 29.3025C87.6148 30.4207 87.0832 31.3373 86.5149 32.0522C85.965 32.7672 85.36 33.3355 84.7001 33.7571C84.0585 34.1787 83.3527 34.4904 82.5828 34.692C81.8312 34.912 81.0062 35.0953 80.108 35.242ZM95.3861 34.9395V18.8259C95.3861 18.2026 95.3678 17.5702 95.3311 16.9286C95.2945 16.2869 95.2395 15.6545 95.1661 15.0312H99.8957L100.198 17.506H99.9232C100.18 16.6811 100.748 16.012 101.628 15.4987C102.508 14.9854 103.489 14.7287 104.57 14.7287C105.78 14.7287 106.843 15.0221 107.76 15.6087C108.677 16.177 109.392 17.011 109.905 18.111C110.436 19.1925 110.702 20.4941 110.702 22.0156C110.702 23.5188 110.436 24.8204 109.905 25.9203C109.392 27.0202 108.677 27.8634 107.76 28.45C106.843 29.0183 105.78 29.3025 104.57 29.3025C103.507 29.3025 102.545 29.0642 101.683 28.5875C100.821 28.0926 100.253 27.4418 99.9782 26.6352H100.281V34.9395H95.3861ZM103.003 25.6728C103.846 25.6728 104.515 25.3886 105.01 24.8204C105.524 24.2337 105.78 23.2988 105.78 22.0156C105.78 20.7324 105.524 19.8066 105.01 19.2384C104.515 18.6517 103.846 18.3584 103.003 18.3584C102.178 18.3584 101.509 18.6517 100.996 19.2384C100.482 19.8066 100.226 20.7324 100.226 22.0156C100.226 23.2988 100.482 24.2337 100.996 24.8204C101.509 25.3886 102.178 25.6728 103.003 25.6728ZM120.452 29.3025C117.922 29.3025 115.951 28.6517 114.54 27.3501C113.146 26.0486 112.45 24.2612 112.45 21.9881C112.45 20.5766 112.743 19.3208 113.33 18.2209C113.916 17.121 114.741 16.2686 115.805 15.6637C116.868 15.0404 118.114 14.7287 119.544 14.7287C120.956 14.7287 122.129 15.0404 123.064 15.6637C124.017 16.2686 124.732 17.1119 125.209 18.1934C125.685 19.2567 125.924 20.4941 125.924 21.9056V22.9505H116.547V20.6407H122.322L121.854 21.0257C121.854 19.9808 121.652 19.2109 121.249 18.7159C120.864 18.2026 120.314 17.946 119.599 17.946C118.774 17.946 118.142 18.2576 117.702 18.8809C117.28 19.4858 117.069 20.4024 117.069 21.6306V22.1256C117.069 23.3538 117.372 24.2521 117.977 24.8204C118.582 25.3886 119.453 25.6728 120.589 25.6728C121.322 25.6728 122.01 25.5903 122.651 25.4253C123.311 25.2603 123.935 24.9945 124.521 24.6279L125.786 27.8176C125.09 28.2942 124.283 28.6609 123.366 28.9175C122.45 29.1742 121.478 29.3025 120.452 29.3025ZM133.616 29.3025C132.315 29.3025 131.132 29.1742 130.069 28.9175C129.024 28.6425 128.135 28.2759 127.402 27.8176L128.584 24.6279C129.299 25.0312 130.097 25.3612 130.977 25.6178C131.875 25.8744 132.764 26.0028 133.644 26.0028C134.34 26.0028 134.845 25.9019 135.156 25.7003C135.486 25.4803 135.651 25.1962 135.651 24.8479C135.651 24.5729 135.55 24.3529 135.349 24.1879C135.147 24.0229 134.845 23.9038 134.441 23.8305L131.472 23.308C130.298 23.088 129.382 22.6572 128.722 22.0156C128.08 21.3557 127.759 20.5032 127.759 19.4583C127.759 18.5051 128.016 17.6802 128.529 16.9836C129.043 16.2686 129.776 15.7187 130.729 15.3337C131.682 14.9304 132.81 14.7287 134.111 14.7287C135.175 14.7287 136.183 14.8479 137.136 15.0862C138.108 15.3245 138.951 15.7003 139.666 16.2136L138.401 19.3208C137.833 18.9359 137.164 18.6242 136.394 18.3859C135.642 18.1293 134.936 18.001 134.276 18.001C133.488 18.001 132.929 18.1201 132.599 18.3584C132.269 18.5784 132.104 18.8534 132.104 19.1834C132.104 19.44 132.196 19.66 132.379 19.8433C132.562 20.0083 132.856 20.1274 133.259 20.2008L136.229 20.7232C137.439 20.9249 138.364 21.3465 139.006 21.9881C139.666 22.6114 139.996 23.4638 139.996 24.5454C139.996 25.5536 139.721 26.4152 139.171 27.1302C138.639 27.8268 137.897 28.3676 136.944 28.7525C135.99 29.1192 134.881 29.3025 133.616 29.3025ZM149.231 29.3025C147.691 29.3025 146.344 29.0092 145.189 28.4226C144.034 27.8359 143.136 27.0018 142.494 25.9203C141.853 24.8204 141.532 23.5096 141.532 21.9881C141.532 20.4666 141.853 19.165 142.494 18.0835C143.136 17.0019 144.034 16.177 145.189 15.6087C146.344 15.0221 147.691 14.7287 149.231 14.7287C150.184 14.7287 151.119 14.8571 152.036 15.1137C152.952 15.3704 153.695 15.737 154.263 16.2136L152.888 19.5408C152.448 19.1742 151.944 18.8992 151.376 18.7159C150.826 18.5143 150.285 18.4134 149.754 18.4134C148.745 18.4134 147.957 18.7159 147.389 19.3208C146.839 19.9258 146.564 20.8149 146.564 21.9881C146.564 23.1613 146.839 24.0596 147.389 24.6829C147.957 25.2878 148.745 25.5903 149.754 25.5903C150.267 25.5903 150.808 25.4986 151.376 25.3153C151.944 25.1137 152.448 24.8387 152.888 24.4904L154.263 27.8176C153.677 28.2759 152.925 28.6425 152.008 28.9175C151.11 29.1742 150.184 29.3025 149.231 29.3025ZM156.289 29V18.8534C156.289 18.2118 156.271 17.5702 156.234 16.9286C156.197 16.2869 156.142 15.6545 156.069 15.0312H160.799L161.321 19.3208H160.579C160.762 18.2759 161.055 17.4143 161.459 16.7361C161.862 16.0578 162.366 15.5537 162.971 15.2237C163.576 14.8937 164.291 14.7287 165.116 14.7287C165.501 14.7287 165.785 14.7471 165.968 14.7837C166.17 14.8021 166.381 14.8571 166.601 14.9487V19.2384C166.142 19.0367 165.776 18.9084 165.501 18.8534C165.226 18.7984 164.868 18.7709 164.428 18.7709C163.677 18.7709 163.063 18.9084 162.586 19.1834C162.109 19.44 161.761 19.8433 161.541 20.3933C161.339 20.9432 161.239 21.649 161.239 22.5106V29H156.289ZM168.078 29V15.0312H172.972V29H168.078ZM167.968 13.0514V8.65178H173.11V13.0514H167.968ZM175.999 34.9395V18.8259C175.999 18.2026 175.981 17.5702 175.944 16.9286C175.908 16.2869 175.853 15.6545 175.779 15.0312H180.509L180.811 17.506H180.536C180.793 16.6811 181.361 16.012 182.241 15.4987C183.121 14.9854 184.102 14.7287 185.183 14.7287C186.393 14.7287 187.457 15.0221 188.373 15.6087C189.29 16.177 190.005 17.011 190.518 18.111C191.05 19.1925 191.315 20.4941 191.315 22.0156C191.315 23.5188 191.05 24.8204 190.518 25.9203C190.005 27.0202 189.29 27.8634 188.373 28.45C187.457 29.0183 186.393 29.3025 185.183 29.3025C184.12 29.3025 183.158 29.0642 182.296 28.5875C181.435 28.0926 180.866 27.4418 180.591 26.6352H180.894V34.9395H175.999ZM183.616 25.6728C184.459 25.6728 185.128 25.3886 185.623 24.8204C186.137 24.2337 186.393 23.2988 186.393 22.0156C186.393 20.7324 186.137 19.8066 185.623 19.2384C185.128 18.6517 184.459 18.3584 183.616 18.3584C182.791 18.3584 182.122 18.6517 181.609 19.2384C181.095 19.8066 180.839 20.7324 180.839 22.0156C180.839 23.2988 181.095 24.2337 181.609 24.8204C182.122 25.3886 182.791 25.6728 183.616 25.6728ZM200.711 29.3025C198.731 29.3025 197.237 28.835 196.228 27.9001C195.238 26.9468 194.744 25.5078 194.744 23.583V18.6334H192.131V15.0312H194.744V11.7315L199.638 10.5766V15.0312H203.048V18.6334H199.638V23.3905C199.638 24.1971 199.821 24.7379 200.188 25.0128C200.555 25.2695 200.995 25.3978 201.508 25.3978C201.82 25.3978 202.085 25.3795 202.305 25.3428C202.544 25.2878 202.791 25.2145 203.048 25.1228V28.89C202.645 29.055 202.241 29.165 201.838 29.22C201.453 29.275 201.077 29.3025 200.711 29.3025Z" fill="#3178C6"/>
</svg>
