<svg width="540" height="484" viewBox="0 0 540 484" fill="none" xmlns="http://www.w3.org/2000/svg">
<rect width="540" height="484" rx="242" fill="url(#paint0_linear_3629_295)"/>
<path d="M398.422 231.851V231.111L398.263 230.382C397.692 227.795 395.939 221.403 392.055 217.988C388.786 215.117 383.852 213.652 377.397 213.652C374.181 213.652 371.342 214.011 370.037 214.208C369.603 214.227 369.171 214.263 368.741 214.318C365.793 202.531 361.003 185.262 356.363 176.641C347.8 160.738 336.314 157.623 326.217 155.953C317.999 154.604 309.701 153.683 301.365 153.193V132.001C301.368 131.077 300.964 130.19 300.239 129.533C299.514 128.876 298.529 128.503 297.498 128.496H235.711C233.594 128.496 231.849 130.071 231.849 132.001V153.193C223.513 153.683 215.215 154.605 206.997 155.953C196.905 157.623 185.415 160.738 176.855 176.641C172.211 185.262 167.426 202.531 164.478 214.318C164.048 214.262 163.615 214.225 163.181 214.208C161.876 214.011 159.038 213.652 155.822 213.652C149.363 213.652 144.433 215.114 141.159 217.996C137.279 221.403 135.526 227.795 134.955 230.386L134.788 231.111V231.851C134.797 235.64 136.483 239.271 139.476 241.948C142.469 244.624 146.524 246.127 150.751 246.127H154.025C150.048 251.79 144.336 260.978 140.342 271.93C137.745 279.074 138.637 290.818 139.771 302.231L139.955 304.129C141.26 317.637 150.079 322.288 158.476 323.588V342.027C158.476 345.882 161.956 349.037 166.196 349.037H197.089C201.338 349.037 204.814 345.882 204.814 342.031V326.995C219.454 327.834 238.418 328.479 267.339 328.479C295.618 328.479 314.16 327.869 328.392 327.058V342.035C328.392 345.89 331.872 349.041 336.116 349.041H367.01C371.259 349.041 374.734 345.886 374.734 342.035V323.592C383.144 322.281 391.971 317.622 393.254 304.137L393.443 302.239C394.577 290.826 395.469 279.082 392.868 271.942C388.878 260.99 383.166 251.798 379.19 246.135H382.459C386.687 246.132 390.741 244.627 393.733 241.949C396.725 239.272 398.411 235.641 398.422 231.851ZM289.923 137.259C289.923 136.294 290.758 135.506 291.786 135.506C292.806 135.506 293.64 136.294 293.64 137.259V147.774C293.652 148.226 293.464 148.664 293.116 148.991C292.769 149.319 292.291 149.51 291.786 149.522C291.281 149.51 290.802 149.319 290.453 148.992C290.104 148.664 289.914 148.226 289.923 147.774V137.259ZM275.125 140.929L272.537 137.007C271.992 136.184 272.414 135.502 273.477 135.502H273.868C274.931 135.502 276.126 136.077 276.517 136.782C276.913 137.491 277.62 138.751 278.086 139.598L278.473 140.393C278.499 140.393 278.842 139.708 279.229 138.873L279.642 138.066L280.173 137.077C280.451 136.624 280.853 136.242 281.341 135.966C281.829 135.691 282.387 135.531 282.963 135.502H283.328C284.387 135.502 284.809 136.176 284.251 137.003L281.65 140.858C281.375 141.317 281.231 141.83 281.231 142.351C281.231 142.872 281.375 143.384 281.65 143.843L284.484 148.034C285.042 148.849 284.629 149.522 283.565 149.522H283.152C282.089 149.522 280.889 148.951 280.481 148.254L278.837 145.434L278.288 144.473C278.262 144.473 277.897 145.167 277.48 146.013L276.974 146.99L276.46 147.947C276.186 148.4 275.787 148.783 275.301 149.059C274.815 149.335 274.258 149.494 273.683 149.522H273.319C272.255 149.522 271.834 148.849 272.383 148.026L275.12 143.93C275.39 143.467 275.532 142.952 275.533 142.43C275.533 141.908 275.393 141.393 275.125 140.929ZM254.214 147.856L258.028 137.168C258.221 136.699 258.563 136.291 259.012 135.995C259.461 135.699 259.998 135.528 260.554 135.502H261.552C262.615 135.502 263.758 136.254 264.083 137.168L267.958 147.856C268.288 148.77 267.695 149.522 266.631 149.522H266.504C265.947 149.498 265.411 149.326 264.963 149.028C264.516 148.73 264.177 148.319 263.991 147.849L263.898 147.597C263.711 147.126 263.372 146.716 262.925 146.418C262.478 146.12 261.942 145.948 261.385 145.923H260.559C260.005 145.947 259.473 146.121 259.03 146.421C258.588 146.721 258.257 147.133 258.081 147.604L258.002 147.845C257.829 148.316 257.501 148.729 257.061 149.029C256.621 149.33 256.089 149.503 255.537 149.526C254.482 149.522 253.885 148.77 254.214 147.856ZM241.503 135.502H250.22C251.283 135.502 252.149 136.101 252.149 136.833C252.149 137.574 251.283 138.168 250.22 138.168H249.614C248.55 138.168 247.685 138.956 247.685 139.921V147.77C247.685 148.731 246.85 149.518 245.826 149.518C244.802 149.518 243.963 148.731 243.963 147.77V139.921C243.965 139.46 243.764 139.016 243.402 138.688C243.041 138.359 242.549 138.173 242.034 138.168H241.503C240.439 138.168 239.574 137.574 239.574 136.833C239.574 136.105 240.439 135.502 241.503 135.502ZM370.52 238.617C369.668 239.922 368.936 241.288 368.332 242.701C363.183 237.085 355.537 233.395 347.641 233.395C335.027 233.395 326.564 242.807 328.735 254.421C330.901 266.035 342.887 275.447 355.485 275.447C368.099 275.447 376.571 266.035 374.4 254.421C374.285 253.847 374.146 253.277 373.983 252.712C377.498 258.017 381.865 265.558 385.051 274.278C387.529 281.095 385.745 296.217 385.051 303.483C384.708 307.075 383.891 315.775 370.578 316.515C344.794 317.945 330.228 321.005 267.343 321.005C204.466 321.005 188.798 317.921 162.637 316.515C149.323 315.806 148.51 307.079 148.163 303.483C147.469 296.217 145.685 281.095 148.163 274.278C151.349 265.558 155.716 258.017 159.231 252.712C159.07 253.277 158.931 253.847 158.814 254.421C156.643 266.035 165.11 275.447 177.725 275.447C190.322 275.447 202.313 266.035 204.48 254.421C206.65 242.807 198.183 233.395 185.568 233.395C177.677 233.395 170.027 237.089 164.882 242.701C164.278 241.288 163.545 239.922 162.689 238.617C162.575 238.625 162.456 238.652 162.338 238.652H150.751C146.507 238.652 143.027 235.592 143.027 231.851C143.027 231.851 144.428 225.522 146.889 223.364C148.906 221.588 152.566 221.131 155.817 221.131C159.31 221.131 162.333 221.663 162.333 221.663C166.02 221.663 169.118 223.971 169.878 227.023C173.595 210.399 179.456 188.838 184.25 179.925C190.85 167.666 198.495 164.956 208.474 163.306C222.464 160.99 237.535 159.801 266.6 159.801C295.666 159.801 310.746 160.99 324.732 163.306C334.71 164.956 342.356 167.662 348.955 179.925C353.749 188.838 359.615 210.399 363.328 227.023C363.722 225.496 364.683 224.135 366.053 223.162C367.422 222.188 369.12 221.66 370.868 221.663C370.868 221.663 373.895 221.131 377.388 221.131C380.64 221.131 384.3 221.588 386.312 223.364C388.777 225.522 390.174 231.851 390.174 231.851C390.174 235.588 386.699 238.652 382.45 238.652H370.872C370.753 238.652 370.643 238.625 370.52 238.617ZM354.184 268.437C345.783 268.437 337.79 262.156 336.349 254.417C334.899 246.678 340.545 240.397 348.955 240.397C357.348 240.397 365.344 246.678 366.79 254.417C368.236 262.156 362.594 268.437 354.184 268.437ZM166.424 254.421C167.865 246.682 175.858 240.401 184.259 240.401C192.669 240.401 198.311 246.682 196.865 254.421C195.428 262.16 187.431 268.441 179.03 268.441C170.62 268.437 164.979 262.156 166.424 254.421Z" fill="#35383F"/>
<path d="M332.254 175.195C328.247 172.707 297.925 168.56 266.605 168.56C235.285 168.56 204.967 172.707 200.956 175.195C185.726 184.651 181.645 228.318 181.645 228.318C181.645 228.318 189.483 231.638 200.956 231.638C210.13 231.638 212.542 226.29 266.605 226.29C320.667 226.29 323.084 231.638 332.254 231.638C343.726 231.638 351.565 228.318 351.565 228.318C351.565 228.318 347.488 184.655 332.254 175.195ZM316.071 298.391C297.068 291.61 235.065 290.727 217.099 298.391C213.751 299.817 210.288 306.988 214.454 306.988H318.721C322.886 306.984 319.608 299.655 316.071 298.391Z" fill="#35383F"/>
<path d="M173.92 303.483C178.186 303.483 181.644 300.345 181.644 296.473C181.644 292.602 178.186 289.463 173.92 289.463C169.654 289.463 166.195 292.602 166.195 296.473C166.195 300.345 169.654 303.483 173.92 303.483Z" fill="#35383F"/>
<path d="M359.289 303.483C363.555 303.483 367.013 300.345 367.013 296.473C367.013 292.602 363.555 289.463 359.289 289.463C355.023 289.463 351.564 292.602 351.564 296.473C351.564 300.345 355.023 303.483 359.289 303.483Z" fill="#35383F"/>
<path d="M295.999 277.743C302.92 277.743 306.8 272.86 304.612 266.893L304.172 265.72C301.984 259.753 294.422 252.239 287.594 251.058C277.26 249.254 255.954 249.254 245.61 251.058C238.787 252.239 231.22 259.753 229.032 265.72L228.597 266.893C226.409 272.86 230.289 277.743 237.209 277.743H295.999ZM234.09 268.583L234.538 267.382C236.26 262.691 242.517 256.953 246.709 256.221C251.23 255.433 258.665 254.965 266.609 254.965C274.553 254.965 281.996 255.433 286.509 256.221C290.705 256.953 296.962 262.691 298.693 267.405L299.119 268.551C299.572 269.78 299.537 270.844 299.027 271.478C298.517 272.112 297.414 272.486 296.004 272.486H237.214C235.799 272.486 234.7 272.112 234.191 271.478C233.681 270.844 233.65 269.78 234.09 268.583Z" fill="#35383F"/>
<path d="M287.682 258.473H245.527C244.007 259.159 242.25 260.427 240.646 261.978H292.564C290.96 260.427 289.203 259.159 287.682 258.473ZM296.861 267.969C296.514 267.099 296.066 266.265 295.526 265.48H237.684C237.149 266.257 236.706 267.081 236.362 267.941L235.971 268.985H297.235L296.861 267.969ZM260.968 143.556C261.965 143.556 262.549 142.886 262.273 142.067C261.913 141.011 261.566 139.952 261.231 138.889C261.231 138.889 261.174 138.708 260.937 137.873C260.91 137.873 260.686 138.641 260.449 139.578C260.449 139.578 260.401 139.767 260.142 140.579L259.711 141.878C259.403 142.8 259.97 143.556 260.968 143.556Z" fill="#35383F"/>
<defs>
<linearGradient id="paint0_linear_3629_295" x1="540" y1="484" x2="-90.5813" y2="280.015" gradientUnits="userSpaceOnUse">
<stop stop-color="#FEBB1B"/>
<stop offset="1" stop-color="#FFC740"/>
</linearGradient>
</defs>
</svg>
